<svg width="16" height="17" viewBox="0 0 16 17" fill="none" xmlns="http://www.w3.org/2000/svg">
<g clip-path="url(#clip0_647_23)">
<rect width="15.8337" height="16.5" transform="translate(0.0617676 0.5)" fill="white"/>
<path d="M0.696399 16.532H15.2609C15.4554 16.532 15.6368 16.4493 15.7585 16.3051C15.8643 16.18 15.9111 16.0214 15.891 15.8584C15.5494 13.0857 13.9133 10.7751 11.6735 9.54321C10.7268 10.5298 9.41987 11.1408 7.97867 11.1408C6.53747 11.1408 5.23047 10.5298 4.28382 9.54321C2.04395 10.7748 0.407521 13.0857 0.0662991 15.8584C0.046216 16.0214 0.0933317 16.1804 0.198784 16.3051C0.320494 16.4493 0.50188 16.532 0.696399 16.532Z" fill="#817F82"/>
<path d="M4.69675 8.94366C4.78173 9.03654 4.87048 9.12504 4.96235 9.21068C5.76479 9.95871 6.82001 10.4176 7.97859 10.4176C9.13716 10.4176 10.1924 9.95831 10.9948 9.21068C11.0867 9.12504 11.1755 9.03647 11.2604 8.94366C11.345 8.85078 11.4276 8.75577 11.5052 8.65604C12.1339 7.84476 12.5126 6.81456 12.5126 5.69288C12.5126 3.08741 10.4784 0.968018 7.97852 0.968018C5.47865 0.968018 3.44458 3.08775 3.44458 5.69281C3.44458 6.8145 3.82323 7.84476 4.45192 8.65598C4.52926 8.75577 4.61176 8.85044 4.69675 8.94366Z" fill="#817F82"/>
</g>
<defs>
<clipPath id="clip0_647_23">
<rect width="15.8337" height="16.5" fill="white" transform="translate(0.0617676 0.5)"/>
</clipPath>
</defs>
</svg>
