<svg
  viewBox="0 0 381 405"
  fill="none"
  xmlns="http://www.w3.org/2000/svg"
>
<g id="PersonagemFlutuando 1">
<path
      id="Vector"
      d="M203.805 16.5625C116.613 16.5625 45.9297 87.2461 45.9297 174.438C45.9297 261.629 116.613 332.312 203.805 332.312C291 332.312 361.68 261.629 361.68 174.438C361.68 87.2461 291 16.5625 203.805 16.5625Z"
      fill="black"
    />
<path
      id="Vector_2"
      d="M204.656 22.4609C120.781 22.4609 52.7812 90.457 52.7812 174.336C52.7812 258.215 120.781 326.211 204.656 326.211C288.535 326.211 356.531 258.215 356.531 174.336C356.531 90.457 288.535 22.4609 204.656 22.4609Z"
      fill="white"
    />
<g id="braco-atras">
<path
        id="Vector_3"
        d="M68.6875 34.3281L68.6836 34.332C68.4766 34.5391 68.2891 34.7656 68.125 35.0117C67.9609 35.2578 67.8242 35.5156 67.7109 35.7891C67.5977 36.0625 67.5156 36.3438 67.457 36.6328C67.3984 36.9219 67.3711 37.2109 67.3711 37.5078C67.3711 37.8008 67.4023 38.0938 67.4609 38.3828C67.5156 38.6719 67.6016 38.9531 67.7148 39.2266C67.8281 39.5 67.9688 39.7578 68.1328 40.0039C68.2969 40.2461 68.4844 40.4727 68.6914 40.6836L79.3477 51.3125C79.5586 51.5195 79.7852 51.707 80.0312 51.8672C80.2773 52.0312 80.5352 52.1719 80.8086 52.2812C81.082 52.3945 81.3633 52.4805 81.6523 52.5391C81.9414 52.5938 82.2305 52.625 82.5273 52.6211C82.8242 52.6211 83.1133 52.5938 83.4023 52.5352C83.6914 52.4766 83.9727 52.3906 84.2461 52.2773C84.5195 52.1641 84.7773 52.0273 85.0234 51.8633C85.2656 51.6992 85.4922 51.5117 85.7031 51.3047L85.707 51.3008C85.9141 51.0898 86.1016 50.8633 86.2617 50.6172C86.4258 50.375 86.5664 50.1133 86.6797 49.8438C86.7891 49.5703 86.875 49.2891 86.9336 49C86.9883 48.7109 87.0195 48.418 87.0195 48.1211C87.0156 47.8281 86.9883 47.5352 86.9297 47.2461C86.8711 46.957 86.7852 46.6758 86.6719 46.4023C86.5586 46.1328 86.4219 45.875 86.2578 45.6289C86.0938 45.3828 85.9062 45.1562 85.6992 44.9492L75.0391 34.3203C74.832 34.1094 74.6055 33.9258 74.3594 33.7617C74.1133 33.5977 73.8555 33.4609 73.582 33.3477C73.3086 33.2344 73.0273 33.1484 72.7383 33.0938C72.4492 33.0352 72.1563 33.0078 71.8633 33.0078C71.5664 33.0078 71.2734 33.0352 70.9844 33.0938C70.6953 33.1523 70.4141 33.2383 70.1445 33.3516C69.8711 33.4648 69.6133 33.6016 69.3672 33.7656C69.1211 33.9297 68.8945 34.1172 68.6875 34.3281Z"
        fill="#EA692C"
      />
<g id="Group">
<path
          id="Vector_4"
          d="M68.6869 34.3291L68.683 34.333C68.476 34.54 68.2885 34.7666 68.1244 35.0127C67.9604 35.2588 67.8236 35.5166 67.7104 35.79C67.5971 36.0634 67.515 36.3447 67.4564 36.6338C67.3979 36.9228 67.3705 37.2119 67.3705 37.5088C67.3705 37.8017 67.4018 38.0947 67.4604 38.3838C67.5151 38.6728 67.601 38.9541 67.7143 39.2275C67.8276 39.5009 67.9682 39.7588 68.1323 40.0048C68.2963 40.247 68.4838 40.4736 68.6909 40.6845L79.3473 51.3134C79.5583 51.5204 79.7848 51.7079 80.0309 51.868C80.277 52.0321 80.5349 52.1727 80.8083 52.2821C81.0817 52.3954 81.363 52.4813 81.6521 52.5399C81.9411 52.5946 82.2302 52.6258 82.5271 52.6219C82.8239 52.6219 83.113 52.5946 83.4021 52.536C83.6911 52.4774 83.9724 52.3914 84.2458 52.2782C84.5193 52.1649 84.7771 52.0282 85.0232 51.8641C85.2654 51.7 85.4919 51.5125 85.7029 51.3055L85.7068 51.3016C85.9138 51.0907 86.1013 50.8641 86.2615 50.618C86.4255 50.3758 86.5662 50.1141 86.6794 49.8446C86.7888 49.5711 86.8748 49.2899 86.9333 49.0008C86.988 48.7117 87.0193 48.4188 87.0193 48.1219C87.0154 47.8289 86.988 47.536 86.9294 47.2469C86.8708 46.9578 86.7849 46.6766 86.6716 46.4031C86.5583 46.1336 86.4216 45.8758 86.2575 45.6297C86.0935 45.3836 85.906 45.1571 85.6989 44.95L75.0386 34.3212C74.8315 34.1103 74.605 33.9267 74.3589 33.7626C74.1128 33.5985 73.8549 33.4618 73.5815 33.3486C73.3081 33.2353 73.0268 33.1493 72.7377 33.0947C72.4487 33.0361 72.1557 33.0087 71.8627 33.0087C71.5658 33.0087 71.2729 33.0361 70.9838 33.0947C70.6947 33.1533 70.4135 33.2392 70.144 33.3525C69.8705 33.4658 69.6127 33.6025 69.3666 33.7666C69.1205 33.9306 68.894 34.1181 68.6869 34.3291Z"
          stroke="black"
          stroke-width="4.71853"
          stroke-miterlimit="10"
        />
</g>
<path
        id="Vector_5"
        d="M75.4414 25.2695H75.4375C75.168 25.3867 74.9102 25.5312 74.668 25.6992C74.4258 25.8672 74.1992 26.0547 73.9961 26.2656C73.7891 26.4805 73.6094 26.7109 73.4492 26.957C73.2891 27.207 73.1563 27.4648 73.0469 27.7422C72.9375 28.0156 72.8555 28.2969 72.8047 28.5859C72.75 28.8789 72.7266 29.168 72.7344 29.4648C72.7383 29.7578 72.7695 30.0508 72.832 30.3398C72.8945 30.6289 72.9844 30.9062 73.1016 31.1758L79.0938 44.9844C79.2109 45.2539 79.3555 45.5117 79.5234 45.7539C79.6914 45.9961 79.8789 46.2226 80.0898 46.4258C80.3047 46.6289 80.5352 46.8125 80.7812 46.9726C81.0312 47.1328 81.2891 47.2656 81.5664 47.375C81.8398 47.4844 82.1211 47.5625 82.4102 47.6172C82.7031 47.668 82.9961 47.6914 83.2891 47.6875C83.5859 47.6836 83.875 47.6484 84.1641 47.5859C84.4531 47.5234 84.7305 47.4336 85.0039 47.3164H85.0078C85.2773 47.1992 85.5352 47.0547 85.7773 46.8867C86.0195 46.7187 86.2422 46.5312 86.4492 46.3203C86.6523 46.1055 86.8359 45.875 86.9961 45.6289C87.1562 45.3828 87.2891 45.1211 87.3984 44.8437C87.5078 44.5703 87.5859 44.2891 87.6406 44C87.6914 43.707 87.7148 43.418 87.7109 43.1211C87.707 42.8281 87.6719 42.5351 87.6094 42.2461C87.5469 41.957 87.457 41.6797 87.3398 41.4101L81.3516 27.6016C81.2344 27.332 81.0898 27.0742 80.9219 26.832C80.7539 26.5898 80.5664 26.3672 80.3516 26.1601C80.1406 25.957 79.9102 25.7734 79.6641 25.6133C79.4141 25.4531 79.1523 25.3203 78.8789 25.2109C78.6055 25.1016 78.3242 25.0234 78.0312 24.9687C77.7422 24.918 77.4492 24.8945 77.1562 24.8984C76.8594 24.9023 76.5664 24.9375 76.2813 25C75.9922 25.0625 75.7109 25.1523 75.4414 25.2695Z"
        fill="#EA692C"
      />
<g id="Group_2">
<path
          id="Vector_6"
          d="M75.44 25.2692L75.4361 25.2692C75.1665 25.3864 74.9087 25.5309 74.6665 25.6989C74.4243 25.8669 74.1978 26.0544 73.9947 26.2653C73.7876 26.4801 73.6079 26.7106 73.4478 26.9567C73.2876 27.2067 73.1548 27.4645 73.0454 27.7419C72.9361 28.0153 72.854 28.2965 72.8033 28.5856C72.7486 28.8786 72.7252 29.1676 72.733 29.4645C72.7369 29.7575 72.7681 30.0504 72.8306 30.3395C72.8931 30.6286 72.983 30.9059 73.1002 31.1754L79.0926 44.9841C79.2098 45.2536 79.3543 45.5114 79.5223 45.7536C79.6902 45.9958 79.8778 46.2223 80.0887 46.4255C80.3035 46.6286 80.534 46.8122 80.7801 46.9723C81.0301 47.1325 81.2879 47.2653 81.5653 47.3747C81.8387 47.4841 82.12 47.5622 82.409 47.6169C82.702 47.6677 82.995 47.6911 83.288 47.6872C83.5848 47.6833 83.8739 47.6481 84.163 47.5856C84.452 47.5231 84.7294 47.4333 85.0028 47.3161L85.0067 47.3161C85.2763 47.1989 85.5341 47.0544 85.7763 46.8864C86.0184 46.7184 86.2411 46.5309 86.4481 46.32C86.6513 46.1052 86.8349 45.8747 86.995 45.6286C87.1552 45.3825 87.288 45.1208 87.3973 44.8434C87.5067 44.57 87.5848 44.2888 87.6395 43.9997C87.6903 43.7067 87.7137 43.4177 87.7098 43.1208C87.7059 42.8278 87.6708 42.5349 87.6083 42.2458C87.5457 41.9567 87.4559 41.6794 87.3387 41.4098L81.3502 27.6012C81.233 27.3317 81.0885 27.0739 80.9205 26.8317C80.7525 26.5895 80.565 26.3669 80.3502 26.1598C80.1392 25.9567 79.9088 25.7731 79.6627 25.613C79.4127 25.4528 79.151 25.32 78.8775 25.2106C78.6041 25.1012 78.3228 25.0231 78.0298 24.9684C77.7408 24.9176 77.4478 24.8942 77.1548 24.8981C76.858 24.902 76.565 24.9372 76.2798 24.9997C75.9908 25.0622 75.7095 25.152 75.44 25.2692Z"
          stroke="black"
          stroke-width="4.71852"
          stroke-miterlimit="10"
        />
</g>
<path
        id="Vector_7"
        d="M58.2344 48.7149C56.9844 45.8359 58.9609 44.3828 60.1836 43.7774C60.4922 43.6016 60.8164 43.5 61.168 43.4649C61.5156 43.4336 61.8555 43.4727 62.1914 43.582C62.5234 43.6953 62.8164 43.8711 63.0742 44.1055C63.3359 44.3438 63.5313 44.625 63.6719 44.9453C64.4141 46.4844 68.6055 52.7813 69.9336 54.0625C71.7891 55.8477 72.1797 56.6602 74.8008 56.457C76.4063 56.0625 77.7266 55.4102 77.9258 51.7617C78.0625 49.2539 80.1133 36.1172 80.7539 31.3359C81.1367 28.5039 82.5899 24.6367 87.3984 25.1719C90.332 25.5 92.5899 27.6836 92.4102 32.4453C92.1797 39.0117 89.9258 48.2617 89.5313 56.875C89.3359 61.2969 91.5664 63.2461 95.3945 68.0625C99.2227 72.8828 150.973 124.586 150.973 124.586L144.055 130.047C144.055 130.047 87.8984 86.5899 73.7149 74.8008C61.1484 64.3477 59.4883 51.5977 58.2344 48.7149Z"
        fill="#EA692C"
      />
<g id="Group_3">
<path
          id="Vector_8"
          d="M58.2364 48.715C56.9864 45.8361 58.963 44.383 60.1856 43.7775C60.4942 43.6017 60.8184 43.5002 61.17 43.465C61.5176 43.4337 61.8575 43.4728 62.1934 43.5822C62.5254 43.6955 62.8184 43.8712 63.0762 44.1056C63.3379 44.3439 63.5332 44.6252 63.6738 44.9455C64.416 46.4846 68.6074 52.7815 69.9355 54.0627C71.791 55.8479 72.1816 56.6604 74.8027 56.4573C76.4081 56.0628 77.7284 55.4104 77.9277 51.7619C78.0644 49.2541 80.1151 36.1173 80.7558 31.336C81.1386 28.5039 82.5917 24.6367 87.4003 25.1719C90.3338 25.5 92.5916 27.6836 92.4119 32.4454C92.1815 39.0118 89.9276 48.2619 89.533 56.8753C89.3377 61.2972 91.5682 63.2464 95.3963 68.0628C99.2244 72.8832 150.974 124.587 150.974 124.587L144.056 130.048C144.056 130.048 87.9002 86.5903 73.7168 74.8012C61.1504 64.348 59.4903 51.5979 58.2364 48.715Z"
          stroke="black"
          stroke-width="4.7185"
          stroke-miterlimit="10"
        />
</g>
</g>
<g id="perna-atras">
<path
        id="Vector_9"
        d="M177.509 288.319C177.509 288.319 133.888 233.373 127.705 224.627C121.525 215.88 125.107 209.591 127.521 206.365C129.939 203.134 171.642 153.181 171.642 153.181C171.642 153.181 181.759 154.599 185.798 164.005C189.837 173.411 184.732 178.861 176.857 183.255C168.978 187.646 170.767 188.982 169.247 191.314C167.728 193.642 161.72 205.349 160.576 207.947C159.427 210.548 161.201 212.783 163.978 215.65C166.751 218.513 170.954 221.099 170.954 221.099L162.986 228.236L189.997 278.826L177.509 288.319Z"
        fill="#3E92F6"
        stroke="black"
        stroke-width="4.7185"
        stroke-miterlimit="10"
      />
<path
        id="Vector_10"
        d="M143.021 244.576C157.818 263.514 177.509 288.319 177.509 288.319L189.997 278.826L162.986 228.236L143.021 244.592V244.576Z"
        fill="#EA692C"
        stroke="black"
        stroke-width="4.7185"
        stroke-miterlimit="10"
      />
<path
        id="Vector_11"
        d="M177.509 288.319C177.509 288.319 160.052 329.948 158.544 333.17C157.04 336.393 158.193 341.741 163.454 345.764C168.716 349.792 176.572 354.643 176.572 354.643L227.727 293.733C227.727 293.733 215.685 283.951 213.841 282.1C212.001 280.252 208.392 278.162 204.837 278.397C202.782 278.529 189.997 278.826 189.997 278.826L177.509 288.319Z"
        fill="black"
        stroke="black"
        stroke-width="4.7185"
        stroke-linecap="round"
        stroke-linejoin="round"
      />
<path
        id="Vector_12"
        d="M158.337 338.784C159.036 341.143 160.673 343.639 163.454 345.764C168.716 349.792 176.572 354.643 176.572 354.643L227.727 293.733C227.727 293.733 216.079 283.44 213.841 282.1C206.325 291.678 173.501 331.729 170.724 334.69C167.95 337.647 162.868 344.034 158.337 338.784Z"
        fill="white"
        stroke="black"
        stroke-width="4.7185"
        stroke-linecap="round"
        stroke-linejoin="round"
      />
<path
        id="Vector_13"
        d="M177.447 288.24L189.946 278.717L186.415 272.111L172.845 282.432C175.415 285.678 177.091 287.811 177.447 288.24Z"
        stroke="#C1272D"
        stroke-width="0.47185"
        stroke-miterlimit="10"
      />
<path
        id="Vector_14"
        d="M172.845 282.432L186.415 272.111L182.88 265.51L168.251 276.635L172.845 282.432Z"
        stroke="#C1272D"
        stroke-width="0.47185"
        stroke-miterlimit="10"
      />
<path
        id="Vector_15"
        d="M168.247 276.623L182.876 265.498L179.345 258.892L163.646 270.83L168.247 276.623Z"
        stroke="#C1272D"
        stroke-width="0.47185"
        stroke-miterlimit="10"
      />
<path
        id="Vector_16"
        d="M163.65 270.814L179.353 258.904L175.818 252.299L159.064 265.037L163.65 270.814Z"
        stroke="#C1272D"
        stroke-width="0.47185"
        stroke-miterlimit="10"
      />
<path
        id="Vector_17"
        d="M177.447 288.24L189.946 278.717L186.415 272.111L172.845 282.432C175.415 285.678 177.091 287.811 177.447 288.24Z"
        fill="#A83AF5"
        stroke="black"
        stroke-width="3.30295"
        stroke-miterlimit="10"
      />
<path
        id="Vector_18"
        d="M172.845 282.432L186.415 272.111L182.88 265.51L168.251 276.635L172.845 282.432Z"
        fill="#489E2D"
        stroke="black"
        stroke-width="3.30295"
        stroke-miterlimit="10"
      />
<path
        id="Vector_19"
        d="M168.247 276.623L182.876 265.498L179.345 258.892L163.646 270.83L168.247 276.623Z"
        fill="#E846E6"
        stroke="black"
        stroke-width="3.30295"
        stroke-miterlimit="10"
      />
<path
        id="Vector_20"
        d="M163.65 270.814L179.353 258.904L175.818 252.299L159.064 265.037L163.65 270.814Z"
        fill="#479FAF"
        stroke="black"
        stroke-width="3.30295"
        stroke-miterlimit="10"
      />
<path
        id="Vector_21"
        d="M186.15 272.244L179.087 259.033L175.552 252.432L158.798 265.17C160.376 267.17 161.915 269.119 163.392 270.982C165.009 273.037 166.56 274.99 167.982 276.795L172.579 282.6C175.15 285.846 176.825 287.979 177.185 288.404L189.685 278.9L186.15 272.244Z"
        stroke="black"
        stroke-width="4.7185"
        stroke-miterlimit="10"
      />
<path
        id="Vector_22"
        d="M153.595 235.908C153.595 235.908 145.185 224.892 142.31 221.252C139.439 217.615 136.333 212.459 139.759 207.759C143.185 203.06 174.032 168.677 174.032 168.677"
        stroke="black"
        stroke-width="4.7185"
        stroke-miterlimit="10"
      />
<path
        id="Vector_23"
        d="M177.607 155.259L169.794 164.693C169.794 164.693 174.751 168.63 177.677 171.493C180.603 174.357 184.825 171.888 187.114 168.825"
        stroke="black"
        stroke-width="4.7185"
        stroke-miterlimit="10"
      />
<path
        id="Vector_24"
        d="M165.677 316.463C162.193 324.717 159.146 331.893 158.544 333.159C158.169 334.053 157.966 334.979 157.927 335.948C157.892 336.917 158.029 337.858 158.337 338.772C162.868 344.026 167.95 337.631 170.724 334.678C171.669 333.682 175.989 328.487 181.614 321.674C174.818 315.373 165.677 316.463 165.677 316.463Z"
        fill="white"
        stroke="black"
        stroke-width="4.7185"
        stroke-linecap="round"
        stroke-linejoin="round"
      />
</g>
<g id="perna-frente">
<path
        id="Vector_25"
        d="M245.359 319.254C245.359 319.254 164.82 271.328 152.934 263.309C141.047 255.285 142.551 245.762 144.039 240.59C145.523 235.418 173.898 153.246 173.898 153.246C173.898 153.246 187.211 150.23 196.707 160.055C206.203 169.879 202.422 179.121 194.668 188.336C186.914 197.547 189.789 198.379 189.004 202.016C188.223 205.652 186.293 223.133 186.07 226.926C185.848 230.719 189.148 232.664 193.973 234.949C198.801 237.23 205.301 238.453 205.301 238.453L198.73 251.121L256.449 301.477L245.359 319.254Z"
        fill="#3E92F6"
      />
<g id="Group_4">
<path
          id="Vector_26"
          d="M245.36 319.256C245.36 319.256 164.822 271.33 152.935 263.311C141.048 255.287 142.552 245.763 144.04 240.592C145.525 235.42 173.9 153.247 173.9 153.247C173.9 153.247 187.212 150.231 196.708 160.056C206.204 169.88 202.423 179.122 194.669 188.337C186.915 197.548 189.79 198.38 189.005 202.017C188.224 205.654 186.294 223.134 186.071 226.927C185.849 230.72 189.15 232.666 193.974 234.951C198.802 237.232 205.302 238.455 205.302 238.455L198.732 251.123L256.45 301.479L245.36 319.256Z"
          stroke="black"
          stroke-width="4.7185"
          stroke-miterlimit="10"
        />
</g>
<path
        id="Vector_27"
        d="M181.531 280.984C208.996 297.617 245.359 319.254 245.359 319.254L256.449 301.477L198.703 251.09L181.531 280.984Z"
        fill="#EA692C"
      />
<g id="Group_5">
<path
          id="Vector_28"
          d="M181.532 280.986C208.997 297.619 245.36 319.256 245.36 319.256L256.45 301.479L198.704 251.092L181.532 280.986Z"
          stroke="black"
          stroke-width="4.7185"
          stroke-miterlimit="10"
        />
</g>
<path
        id="Vector_29"
        d="M245.359 319.254C245.359 319.254 243.332 379.512 242.957 384.258C242.586 389.004 246.582 395.109 255.062 397.66C263.543 400.215 275.66 402.531 275.66 402.531L310.637 302.199C310.637 302.199 290.961 295.699 287.785 294.258C284.508 292.77 279.109 291.898 274.777 293.902C272.277 295.047 256.449 301.453 256.449 301.453L245.359 319.254Z"
        fill="black"
      />
<g id="Group_6">
<path
          id="Vector_30"
          d="M245.36 319.256C245.36 319.256 243.333 379.515 242.958 384.261C242.587 389.007 246.583 395.112 255.063 397.663C263.544 400.218 275.661 402.534 275.661 402.534L310.637 302.201C310.637 302.201 290.961 295.701 287.786 294.26C284.508 292.772 279.11 291.901 274.778 293.904C272.278 295.049 256.45 301.455 256.45 301.455L245.36 319.256Z"
          stroke="black"
          stroke-width="4.7185"
          stroke-linecap="round"
          stroke-linejoin="round"
        />
</g>
<path
        id="Vector_31"
        d="M245.359 391.367C247.352 393.98 250.578 396.324 255.062 397.66C263.555 400.195 275.66 402.531 275.66 402.531L310.637 302.199C310.637 302.199 291.215 294.871 287.785 294.258C282.941 309.785 260.945 375.375 258.883 380.379C256.824 385.387 253.508 395.777 245.359 391.367Z"
        fill="white"
      />
<g id="Group_7">
<path
          id="Vector_32"
          d="M245.36 391.37C247.352 393.983 250.579 396.327 255.063 397.663C263.555 400.198 275.661 402.534 275.661 402.534L310.637 302.201C310.637 302.201 291.215 294.873 287.786 294.26C282.942 309.787 260.946 375.378 258.883 380.382C256.825 385.39 253.508 395.78 245.36 391.37Z"
          stroke="black"
          stroke-width="4.7185"
          stroke-linecap="round"
          stroke-linejoin="round"
        />
</g>
<path
        id="Vector_33"
        d="M245.243 319.186L256.348 301.389L248.798 294.783L236.743 314.104L245.243 319.186Z"
        stroke="#C1272D"
        stroke-width="0.47185"
        stroke-miterlimit="10"
      />
<path
        id="Vector_34"
        d="M236.743 314.104L248.79 294.783L241.239 288.178L228.243 309.018L236.743 314.104Z"
        stroke="#C1272D"
        stroke-width="0.47185"
        stroke-miterlimit="10"
      />
<path
        id="Vector_35"
        d="M228.243 309.045L241.239 288.205L233.692 281.6L219.751 303.951L228.243 309.045Z"
        stroke="#C1272D"
        stroke-width="0.47185"
        stroke-miterlimit="10"
      />
<path
        id="Vector_36"
        d="M219.751 303.971L233.692 281.619L226.141 275.014L211.263 298.869L219.751 303.971Z"
        stroke="#C1272D"
        stroke-width="0.47185"
        stroke-miterlimit="10"
      />
<path
        id="Vector_37"
        d="M245.242 319.184L256.348 301.387L248.797 294.781L236.742 314.102L245.242 319.184Z"
        fill="#A83AF5"
      />
<g id="Group_8">
<path
          id="Vector_38"
          d="M245.243 319.186L256.348 301.389L248.798 294.783L236.743 314.104L245.243 319.186Z"
          stroke="black"
          stroke-width="4.7185"
          stroke-miterlimit="10"
        />
</g>
<path
        id="Vector_39"
        d="M236.742 314.102L248.789 294.781L241.238 288.176L228.242 309.016L236.742 314.102Z"
        fill="#479FAF"
      />
<g id="Group_9">
<path
          id="Vector_40"
          d="M236.743 314.104L248.79 294.783L241.239 288.178L228.243 309.018L236.743 314.104Z"
          stroke="black"
          stroke-width="4.7185"
          stroke-miterlimit="10"
        />
</g>
<path
        id="Vector_41"
        d="M228.243 309.045L241.239 288.205L233.692 281.6L219.751 303.951L228.243 309.045Z"
        fill="#E846E6"
        stroke="black"
        stroke-width="4.7185"
        stroke-miterlimit="10"
      />
<path
        id="Vector_42"
        d="M219.751 303.971L233.692 281.619L226.141 275.014L211.263 298.869L219.751 303.971Z"
        fill="#479FAF"
        stroke="black"
        stroke-width="4.7185"
        stroke-miterlimit="10"
      />
<g id="Group_10">
<path
          id="Vector_43"
          d="M248.528 295.084L225.876 275.268L210.997 299.123L219.489 304.209L227.985 309.287L236.481 314.362C241.231 317.194 244.356 319.08 244.973 319.424L256.071 301.627L248.528 295.084Z"
          stroke="black"
          stroke-width="4.7185"
          stroke-miterlimit="10"
        />
</g>
<path
        id="Vector_44"
        d="M190.63 265.146C190.63 265.146 174.896 255.373 169.579 252.197C164.259 249.025 157.943 244.045 159.993 236.552C162.048 229.06 184.251 171.489 184.251 171.489"
        stroke="black"
        stroke-width="4.7185"
        stroke-miterlimit="10"
      />
<path
        id="Vector_45"
        d="M182.345 153.04L177.064 168.505C177.064 168.505 185.118 171.071 190.13 173.263C195.142 175.45 199.271 170.368 200.685 165.45"
        stroke="black"
        stroke-width="4.7185"
        stroke-miterlimit="10"
      />
<path
        id="Vector_46"
        d="M243.938 360.03C243.505 371.987 243.106 382.401 242.958 384.261C242.786 386.495 243.583 389.046 245.36 391.37C253.508 395.78 256.825 385.39 258.883 380.382C259.579 378.698 262.528 370.159 266.321 358.975C254.833 354.319 243.938 360.03 243.938 360.03Z"
        fill="white"
        stroke="black"
        stroke-width="4.7185"
        stroke-linecap="round"
        stroke-linejoin="round"
      />
</g>
<g id="torso">
<path
        id="Vector_47"
        d="M136.037 111.903L182.943 121.473C197.88 124.516 199.931 133.739 198.911 138.841C197.892 143.938 194.786 149.692 186.505 150.817C178.224 151.946 153.701 140.954 153.701 140.954L136.037 111.903Z"
        fill="#489E2D"
        stroke="black"
        stroke-width="4.7185"
        stroke-miterlimit="10"
      />
<path
        id="Vector_48"
        d="M198.892 138.841C199.935 133.731 197.86 124.516 182.923 121.473L177.337 120.329C178.279 123.88 180.114 129.196 183.31 133.61C186.716 138.329 191.696 141.841 196.974 144.11C197.892 142.454 198.532 140.696 198.892 138.841Z"
        fill="#489E2D"
        stroke="black"
        stroke-width="4.7185"
        stroke-miterlimit="10"
      />
<path
        id="Vector_49"
        d="M194.31 157.962L157.095 165.919L128.087 131.352C122.713 124.274 123.435 114.368 131.498 112.653C140.978 110.626 148.814 115.387 160.529 127.114L194.31 157.962Z"
        fill="white"
        stroke="black"
        stroke-width="4.7185"
        stroke-miterlimit="10"
      />
<g id="Vector_50">
<path d="M165.216 131.399L141.822 137.45Z" fill="white" />
<path
          d="M165.216 131.399L141.822 137.45"
          stroke="black"
          stroke-width="4.7185"
          stroke-miterlimit="10"
        />
</g>
<g id="Vector_51">
<path d="M141.353 147.157L173.943 139.364Z" fill="white" />
<path
          d="M141.353 147.157L173.943 139.364"
          stroke="black"
          stroke-width="4.7185"
          stroke-miterlimit="10"
        />
</g>
<g id="Vector_52">
<path d="M149.658 157.056L184.427 148.938Z" fill="white" />
<path
          d="M149.658 157.056L184.427 148.938"
          stroke="black"
          stroke-width="4.7185"
          stroke-miterlimit="10"
        />
</g>
</g>
<g id="braco-frente">
<path
        id="Vector_53"
        d="M137.987 121.72C133.845 121.199 129.326 123.938 126.87 129.405C124.413 134.867 118.531 147.503 116.093 152.211C113.66 156.92 110.758 158.591 107.15 154.019C103.661 149.587 97.4961 142.661 93.1418 134.398C90.7468 129.773 94.5056 127.399 88.0751 120.753C82.8571 115.365 83.3592 115.112 79.3408 111.769C73.3663 106.809 65.4064 111.794 61.4713 116.122C52.48 125.983 54.0254 127.949 59.9167 135.112C63.8118 139.844 71.9576 151.329 80.4381 147.588C85.9917 153.229 101.426 169.996 107.343 175.172C114.626 181.534 124.383 174.119 128.876 165.796C130.785 162.274 138.618 145.552 143.803 134.405C146.857 127.831 142.134 122.245 137.987 121.72Z"
        fill="#EA692C"
      />
<g id="Group_11">
<path
          id="Vector_54"
          d="M137.989 121.721C133.846 121.2 129.327 123.938 126.871 129.405C124.415 134.868 118.532 147.504 116.095 152.212C113.661 156.921 110.76 158.593 107.151 154.02C103.663 149.589 97.4978 142.662 93.1435 134.399C90.7485 129.774 94.5073 127.4 88.0769 120.754C82.8589 115.366 83.361 115.113 79.3427 111.77C73.3682 106.81 65.4083 111.795 61.4733 116.123C52.482 125.984 54.0274 127.95 59.9186 135.113C63.8137 139.845 71.9595 151.33 80.4399 147.589C85.9934 153.23 101.427 169.997 107.344 175.173C114.627 181.535 124.385 174.12 128.878 165.797C130.786 162.275 138.619 145.553 143.804 134.406C146.858 127.832 142.135 122.246 137.989 121.721Z"
          stroke="black"
          stroke-width="4.7185"
          stroke-miterlimit="10"
        />
</g>
<path
        id="Vector_55"
        d="M117.956 149.438L133.896 155.375C136.992 148.881 140.85 140.755 143.795 134.405C146.853 127.83 142.13 122.245 137.983 121.727C133.836 121.21 129.321 123.949 126.865 129.412C125.273 132.947 121.255 142.132 117.956 149.438Z"
        fill="white"
      />
<g id="Group_12">
<path
          id="Vector_56"
          d="M117.958 149.439L133.897 155.376C136.993 148.882 140.851 140.756 143.796 134.405C146.854 127.831 142.131 122.245 137.984 121.728C133.838 121.211 129.323 123.95 126.867 129.413C125.274 132.948 121.256 142.133 117.958 149.439Z"
          stroke="black"
          stroke-width="4.7185"
          stroke-miterlimit="10"
        />
</g>
<g id="Vector_57">
<path d="M122.178 139.982L138.45 145.796Z" fill="white" />
<path
          d="M122.178 139.982L138.45 145.796"
          stroke="black"
          stroke-width="4.7185"
          stroke-miterlimit="10"
        />
</g>
<g id="Vector_58">
<path d="M126.871 129.405L143.295 135.355Z" fill="white" />
<path
          d="M126.871 129.405L143.295 135.355"
          stroke="black"
          stroke-width="4.7185"
          stroke-miterlimit="10"
        />
</g>
<g id="Lupa">
<path id="Vector_59" d="M83.7317 116.582L91.4105 103.721Z" fill="#EA692C" />
<g id="Group_13">
<path
            id="Vector_60"
            d="M83.7335 116.583L91.4123 103.722"
            stroke="black"
            stroke-width="4.7185"
            stroke-miterlimit="10"
          />
</g>
<path id="Vector_61" d="M81.7978 116.05L89.4802 103.194Z" fill="#EA692C" />
<g id="Group_14">
<path
            id="Vector_62"
            d="M81.7995 116.051L89.4819 103.195"
            stroke="black"
            stroke-width="4.7185"
            stroke-miterlimit="10"
          />
</g>
<path
          id="Vector_63"
          d="M84.1813 91.9325C84.1222 92.8251 84.1496 93.7117 84.267 94.6003C84.3807 95.4847 84.5816 96.3514 84.8702 97.1966C85.1588 98.0417 85.524 98.8527 85.9699 99.6261C86.4159 100.399 86.9318 101.123 87.5214 101.796C88.111 102.469 88.7599 103.076 89.4677 103.62C90.1755 104.164 90.931 104.637 91.7349 105.03C92.5346 105.428 93.3673 105.741 94.229 105.971C95.0944 106.204 95.9696 106.348 96.8622 106.407C97.7548 106.466 98.6413 106.439 99.5299 106.322C100.414 106.208 101.281 106.007 102.126 105.718C102.975 105.434 103.782 105.065 104.56 104.619C105.333 104.173 106.056 103.657 106.725 103.067C107.399 102.477 108.009 101.829 108.553 101.121C109.097 100.413 109.566 99.6575 109.964 98.8578C110.357 98.0578 110.671 97.2251 110.904 96.3636C111.137 95.4983 111.281 94.6231 111.341 93.7305C111.4 92.8379 111.372 91.9513 111.255 91.0666C111.137 90.178 110.936 89.3113 110.652 88.4664C110.363 87.6213 109.998 86.8103 109.552 86.0369C109.106 85.2636 108.586 84.5402 107.997 83.8669C107.411 83.194 106.762 82.5873 106.054 82.0433C105.342 81.499 104.591 81.0264 103.787 80.6326C102.987 80.2352 102.155 79.9217 101.293 79.6924C100.427 79.4589 99.5522 79.3148 98.6596 79.2557C97.7671 79.1967 96.8805 79.2241 95.9919 79.3414C95.1075 79.4551 94.2407 79.6561 93.3956 79.9447C92.5468 80.2291 91.7355 80.5982 90.9622 81.0442C90.1889 81.4901 89.4657 82.006 88.7925 82.5956C88.1192 83.1853 87.5126 83.8341 86.9685 84.5419C86.4245 85.2497 85.9556 86.0055 85.5581 86.8052C85.1607 87.605 84.8472 88.4376 84.6176 89.3033C84.3844 90.1647 84.2404 91.0399 84.1813 91.9325Z"
          fill="white"
        />
<g id="Group_15">
<path
            id="Vector_64"
            d="M84.1831 91.9332C84.124 92.8258 84.1514 93.7123 84.2687 94.6009C84.3824 95.4854 84.5834 96.3521 84.872 97.1972C85.1605 98.0424 85.5257 98.8534 85.9717 99.6268C86.4177 100.4 86.9335 101.123 87.5232 101.797C88.1128 102.47 88.7616 103.076 89.4694 103.62C90.1772 104.165 90.9328 104.637 91.7366 105.031C92.5363 105.429 93.369 105.742 94.2307 105.971C95.0961 106.205 95.9713 106.349 96.8639 106.408C97.7564 106.467 98.643 106.44 99.5316 106.322C100.416 106.209 101.283 106.008 102.128 105.719C102.977 105.435 103.784 105.065 104.561 104.62C105.335 104.174 106.058 103.658 106.727 103.068C107.4 102.478 108.011 101.83 108.555 101.122C109.099 100.414 109.568 99.6582 109.965 98.8584C110.359 98.0585 110.672 97.2258 110.906 96.3643C111.139 95.4989 111.283 94.6237 111.342 93.7311C111.401 92.8385 111.374 91.952 111.256 91.0673C111.139 90.1787 110.938 89.3119 110.653 88.467C110.365 87.6219 109.999 86.8109 109.554 86.0375C109.108 85.2642 108.588 84.5408 107.998 83.8675C107.412 83.1945 106.764 82.5878 106.056 82.0438C105.344 81.4995 104.592 81.0269 103.789 80.6331C102.989 80.2357 102.156 79.9222 101.294 79.6929C100.429 79.4594 99.5539 79.3154 98.6613 79.2563C97.7688 79.1972 96.8822 79.2246 95.9936 79.342C95.1092 79.4557 94.2424 79.6567 93.3973 79.9452C92.5486 80.2296 91.7373 80.5987 90.9639 81.0447C90.1906 81.4907 89.4675 82.0066 88.7942 82.5962C88.121 83.1858 87.5143 83.8347 86.9703 84.5425C86.4263 85.2503 85.9573 86.0061 85.5599 86.8059C85.1625 87.6056 84.849 88.4382 84.6194 89.3039C84.3862 90.1654 84.2421 91.0406 84.1831 91.9332Z"
            stroke="black"
            stroke-width="4.7185"
            stroke-miterlimit="10"
          />
</g>
<g id="Group_16">
<path
            id="Vector_65"
            d="M91.8411 90.2674C92.0979 89.8773 92.3918 89.517 92.7191 89.1863C93.0463 88.8557 93.4066 88.5585 93.7915 88.3021C94.1768 88.0418 94.5869 87.8184 95.0177 87.6395C95.4484 87.4605 95.8919 87.3254 96.3481 87.2343C96.8043 87.1431 97.2655 87.0954 97.7314 87.0949C98.1973 87.0944 98.6601 87.1407 99.1162 87.2296C99.5761 87.3188 100.017 87.4537 100.448 87.631C100.878 87.8121 101.287 88.0271 101.677 88.2878"
            stroke="black"
            stroke-width="4.7185"
            stroke-miterlimit="10"
            stroke-linecap="round"
          />
</g>
</g>
</g>
<g id="cabeca">
<path
        id="Vector_66"
        d="M130.918 110.785L132.906 110.641C133.512 110.598 134.102 110.496 134.684 110.336C135.266 110.176 135.828 109.961 136.367 109.688C136.906 109.418 137.418 109.098 137.895 108.727C138.371 108.355 138.805 107.941 139.199 107.488C139.598 107.031 139.941 106.539 140.242 106.016C140.539 105.488 140.785 104.941 140.973 104.367C141.164 103.793 141.297 103.207 141.371 102.609C141.445 102.012 141.461 101.41 141.418 100.809L140.496 88.0156C140.453 87.4141 140.352 86.8242 140.191 86.2422C140.031 85.6602 139.813 85.0977 139.543 84.5586C139.273 84.0195 138.953 83.5117 138.582 83.0352C138.211 82.5586 137.797 82.1211 137.34 81.7266C136.883 81.332 136.395 80.9844 135.867 80.6875C135.344 80.3867 134.793 80.1445 134.219 79.9531C133.648 79.7617 133.063 79.6289 132.461 79.5547C131.863 79.4805 131.262 79.4649 130.66 79.5078L128.668 79.6524C128.066 79.6953 127.473 79.7969 126.891 79.957C126.309 80.1172 125.75 80.332 125.207 80.6016C124.668 80.875 124.16 81.1953 123.684 81.5664C123.207 81.9375 122.77 82.3516 122.375 82.8047C121.98 83.2617 121.633 83.7539 121.336 84.2774C121.035 84.8047 120.793 85.3516 120.602 85.9258C120.41 86.5 120.281 87.086 120.203 87.6836C120.129 88.2813 120.113 88.8828 120.156 89.4844L121.082 102.277C121.125 102.879 121.227 103.469 121.387 104.051C121.547 104.633 121.762 105.195 122.031 105.734C122.305 106.273 122.625 106.781 122.996 107.258C123.367 107.734 123.781 108.172 124.238 108.566C124.691 108.961 125.184 109.309 125.707 109.605C126.234 109.906 126.781 110.148 127.355 110.34C127.93 110.531 128.516 110.664 129.113 110.738C129.715 110.813 130.316 110.828 130.918 110.785Z"
        fill="#EA692C"
      />
<g id="Group_17">
<path
          id="Vector_67"
          d="M130.919 110.784L132.908 110.64C133.513 110.597 134.103 110.495 134.685 110.335C135.267 110.175 135.829 109.96 136.368 109.687C136.908 109.417 137.419 109.097 137.896 108.726C138.372 108.355 138.806 107.941 139.2 107.488C139.599 107.031 139.943 106.538 140.243 106.015C140.54 105.488 140.786 104.941 140.974 104.366C141.165 103.792 141.298 103.206 141.372 102.609C141.447 102.011 141.462 101.409 141.419 100.808L140.497 88.0149C140.454 87.4134 140.353 86.8235 140.193 86.2415C140.032 85.6595 139.814 85.097 139.544 84.5579C139.275 84.0188 138.954 83.511 138.583 83.0345C138.212 82.5579 137.798 82.1204 137.341 81.7259C136.884 81.3314 136.396 80.9837 135.868 80.6868C135.345 80.3861 134.794 80.1439 134.22 79.9525C133.649 79.7611 133.064 79.6282 132.462 79.554C131.864 79.4798 131.263 79.4642 130.661 79.5072L128.669 79.6517C128.067 79.6947 127.474 79.7962 126.892 79.9564C126.31 80.1166 125.751 80.3314 125.208 80.6009C124.669 80.8744 124.161 81.1947 123.685 81.5658C123.208 81.9369 122.771 82.3509 122.376 82.8041C121.981 83.2611 121.634 83.7533 121.337 84.2767C121.036 84.8041 120.794 85.3509 120.603 85.9251C120.411 86.4994 120.282 87.0853 120.204 87.683C120.13 88.2806 120.114 88.8822 120.157 89.4837L121.083 102.277C121.126 102.878 121.228 103.468 121.388 104.05C121.548 104.632 121.763 105.195 122.032 105.734C122.306 106.273 122.626 106.781 122.997 107.257C123.368 107.734 123.782 108.171 124.239 108.566C124.693 108.96 125.185 109.308 125.708 109.605C126.236 109.906 126.782 110.148 127.357 110.339C127.931 110.531 128.517 110.663 129.115 110.738C129.716 110.812 130.318 110.827 130.919 110.784Z"
          stroke="black"
          stroke-width="4.7185"
          stroke-miterlimit="10"
        />
</g>
<path
        id="Vector_68"
        d="M199.27 107.242L199.918 105.355C200.113 104.781 200.254 104.199 200.336 103.602C200.414 103 200.437 102.402 200.402 101.797C200.363 101.195 200.27 100.602 200.113 100.02C199.961 99.4336 199.75 98.8711 199.488 98.3281C199.223 97.7852 198.906 97.2734 198.539 96.793C198.176 96.3125 197.766 95.875 197.312 95.4727C196.863 95.0742 196.375 94.7227 195.852 94.418C195.332 94.1133 194.785 93.8633 194.215 93.668L147.297 77.5234C146.727 77.3281 146.141 77.1914 145.543 77.1094C144.945 77.0273 144.344 77.0039 143.742 77.043C143.141 77.0781 142.547 77.1758 141.961 77.3281C141.379 77.4805 140.816 77.6914 140.273 77.957C139.73 78.2227 139.219 78.5352 138.738 78.9023C138.258 79.2656 137.816 79.6758 137.414 80.1289C137.016 80.582 136.664 81.0664 136.359 81.5898C136.055 82.1094 135.805 82.6562 135.609 83.2266L134.957 85.1133C134.762 85.6875 134.625 86.2695 134.543 86.8672C134.461 87.4687 134.437 88.0664 134.477 88.6719C134.512 89.2734 134.609 89.8672 134.762 90.4492C134.914 91.0352 135.125 91.5977 135.391 92.1406C135.656 92.6836 135.969 93.1953 136.336 93.6758C136.699 94.1563 137.109 94.5937 137.562 94.9961C138.016 95.3945 138.5 95.7461 139.023 96.0508C139.547 96.3555 140.09 96.6055 140.664 96.8008L187.578 112.945C188.148 113.141 188.734 113.277 189.332 113.359C189.93 113.441 190.531 113.465 191.133 113.426C191.738 113.391 192.332 113.293 192.914 113.141C193.5 112.988 194.062 112.777 194.605 112.512C195.148 112.25 195.66 111.934 196.141 111.566C196.621 111.203 197.062 110.793 197.461 110.34C197.859 109.887 198.211 109.402 198.516 108.879C198.82 108.359 199.07 107.812 199.27 107.242Z"
        fill="black"
      />
<g id="Group_18">
<path
          id="Vector_69"
          d="M199.27 107.242L199.919 105.355C200.114 104.781 200.254 104.199 200.337 103.601C200.415 103 200.438 102.402 200.403 101.797C200.364 101.195 200.27 100.601 200.114 100.019C199.962 99.4333 199.751 98.8708 199.489 98.3278C199.223 97.7849 198.907 97.2732 198.54 96.7927C198.176 96.3122 197.766 95.8747 197.313 95.4724C196.864 95.074 196.376 94.7224 195.852 94.4177C195.333 94.1131 194.786 93.8631 194.215 93.6677L147.297 77.5236C146.727 77.3283 146.141 77.1916 145.544 77.1096C144.946 77.0276 144.344 77.0041 143.743 77.0432C143.141 77.0784 142.547 77.176 141.962 77.3284C141.38 77.4807 140.817 77.6916 140.274 77.9573C139.731 78.2229 139.219 78.5354 138.739 78.9026C138.258 79.2659 137.817 79.6761 137.415 80.1292C137.016 80.5823 136.665 81.0667 136.36 81.5901C136.055 82.1097 135.805 82.6565 135.61 83.2268L134.958 85.1136C134.762 85.6878 134.626 86.2698 134.544 86.8675C134.462 87.469 134.438 88.0667 134.477 88.6722C134.512 89.2737 134.61 89.8675 134.762 90.4495C134.915 91.0354 135.126 91.5979 135.391 92.1409C135.657 92.6839 135.969 93.1956 136.337 93.6761C136.7 94.1565 137.11 94.594 137.563 94.9964C138.016 95.3948 138.501 95.7463 139.024 96.051C139.547 96.3557 140.09 96.6057 140.665 96.801L187.579 112.945C188.149 113.14 188.735 113.277 189.333 113.359C189.93 113.441 190.532 113.465 191.133 113.426C191.739 113.39 192.333 113.293 192.915 113.14C193.501 112.988 194.063 112.777 194.606 112.511C195.149 112.25 195.661 111.933 196.141 111.566C196.622 111.203 197.063 110.793 197.462 110.34C197.86 109.886 198.212 109.402 198.516 108.879C198.821 108.359 199.071 107.812 199.27 107.242Z"
          stroke="black"
          stroke-width="4.7185"
          stroke-miterlimit="10"
        />
</g>
<path
        id="Vector_70"
        d="M185.586 96.0273L186.234 94.1406C186.434 93.5664 186.57 92.9844 186.652 92.3867C186.734 91.7852 186.758 91.1875 186.719 90.582C186.684 89.9805 186.586 89.3867 186.434 88.8047C186.277 88.2187 186.07 87.6563 185.805 87.1133C185.539 86.5703 185.227 86.0586 184.859 85.5781C184.492 85.0977 184.086 84.6602 183.633 84.2578C183.18 83.8594 182.691 83.5078 182.172 83.2031C181.648 82.8984 181.102 82.6484 180.531 82.4531L133.617 66.3086C133.047 66.1133 132.461 65.9766 131.863 65.8945C131.266 65.8125 130.664 65.7891 130.063 65.8281C129.457 65.8633 128.863 65.9609 128.281 66.1133C127.695 66.2656 127.133 66.4766 126.59 66.7422C126.047 67.0039 125.535 67.3203 125.055 67.6875C124.574 68.0508 124.133 68.4609 123.734 68.9141C123.336 69.3672 122.98 69.8516 122.68 70.375C122.375 70.8945 122.125 71.4414 121.926 72.0117L121.277 73.8984C121.082 74.4727 120.941 75.0547 120.859 75.6523C120.777 76.2539 120.758 76.8516 120.793 77.4531C120.832 78.0586 120.926 78.6523 121.082 79.2344C121.234 79.8203 121.445 80.3828 121.707 80.9258C121.973 81.4687 122.289 81.9805 122.652 82.4609C123.02 82.9414 123.43 83.3789 123.883 83.7812C124.332 84.1797 124.82 84.5312 125.344 84.8359C125.863 85.1406 126.41 85.3906 126.98 85.5859L173.898 101.727C174.469 101.926 175.051 102.063 175.652 102.145C176.25 102.227 176.852 102.25 177.453 102.211C178.055 102.176 178.648 102.078 179.234 101.926C179.816 101.773 180.379 101.562 180.922 101.297C181.465 101.031 181.977 100.719 182.457 100.352C182.938 99.9883 183.379 99.5781 183.777 99.125C184.18 98.6719 184.531 98.1875 184.836 97.6641C185.141 97.1445 185.391 96.5977 185.586 96.0273Z"
        fill="black"
      />
<g id="Group_19">
<path
          id="Vector_71"
          d="M185.586 96.0264L186.235 94.1397C186.434 93.5654 186.571 92.9834 186.653 92.3858C186.735 91.7842 186.758 91.1865 186.719 90.5811C186.684 89.9795 186.586 89.3858 186.434 88.8037C186.278 88.2178 186.071 87.6553 185.805 87.1123C185.539 86.5694 185.227 86.0576 184.86 85.5772C184.493 85.0967 184.086 84.6592 183.633 84.2569C183.18 83.8585 182.692 83.5069 182.172 83.2022C181.649 82.8975 181.102 82.6475 180.532 82.4522L133.618 66.3081C133.047 66.1128 132.461 65.9761 131.864 65.8941C131.266 65.812 130.665 65.7886 130.063 65.8277C129.457 65.8628 128.864 65.9605 128.282 66.1129C127.696 66.2652 127.133 66.4761 126.59 66.7418C126.047 67.0035 125.536 67.3199 125.055 67.6871C124.575 68.0504 124.133 68.4605 123.735 68.9137C123.336 69.3668 122.981 69.8512 122.68 70.3746C122.375 70.8941 122.125 71.441 121.926 72.0113L121.278 73.8981C121.082 74.4723 120.942 75.0543 120.86 75.652C120.778 76.2535 120.758 76.8512 120.793 77.4527C120.832 78.0582 120.926 78.652 121.082 79.234C121.235 79.8199 121.446 80.3824 121.707 80.9254C121.973 81.4684 122.289 81.9801 122.653 82.4605C123.02 82.941 123.43 83.3785 123.883 83.7808C124.332 84.1793 124.821 84.5308 125.344 84.8355C125.864 85.1402 126.411 85.3902 126.981 85.5855L173.899 101.726C174.469 101.925 175.051 102.062 175.653 102.144C176.25 102.226 176.852 102.249 177.453 102.21C178.055 102.175 178.649 102.077 179.235 101.925C179.817 101.773 180.379 101.562 180.922 101.296C181.465 101.03 181.977 100.718 182.457 100.351C182.938 99.9874 183.379 99.5772 183.778 99.1241C184.18 98.6709 184.532 98.1866 184.836 97.6631C185.141 97.1436 185.391 96.5967 185.586 96.0264Z"
          stroke="black"
          stroke-width="4.7185"
          stroke-miterlimit="10"
        />
</g>
</g>
<g id="estrela-g">
<path
        id="Vector_72"
        fill-rule="evenodd"
        clip-rule="evenodd"
        d="M271.871 28.5117C276.301 18.0703 279.137 11.418 280.375 8.55078C284.516 19.6953 287.191 26.3477 288.402 28.5117L308.762 35.7344L288.402 45.043L280.656 63.7891L271.871 45.043C269.57 43.7617 263.359 40.6914 253.227 35.832C254.852 35.1211 261.066 32.6797 271.871 28.5117Z"
        fill="#0794FF"
      />
<g id="Group_20">
<path
          id="Vector_73"
          d="M271.871 28.5114C276.3 18.07 279.136 11.4176 280.374 8.55045C284.515 19.695 287.191 26.3473 288.402 28.5114L308.761 35.734L288.402 45.0426L280.656 63.7886L271.871 45.0426C269.57 43.7613 263.359 40.691 253.226 35.8317C254.851 35.1207 261.066 32.6793 271.871 28.5114Z"
          stroke="black"
          stroke-width="5.21664"
          stroke-miterlimit="5.28"
        />
</g>
</g>
<g id="estrela-m">
<path
        id="Vector_74"
        fill-rule="evenodd"
        clip-rule="evenodd"
        d="M45.1445 197.715C49.2852 187.961 51.9336 181.742 53.0898 179.062C56.9609 189.477 59.4609 195.691 60.5938 197.715L79.6172 204.465L60.5938 213.16L53.3555 230.68L45.1445 213.16C42.9961 211.965 37.1914 209.098 27.7266 204.555C29.2422 203.891 35.0469 201.609 45.1445 197.715Z"
        fill="#0794FF"
      />
<g id="Group_21">
<path
          id="Vector_75"
          d="M45.1442 197.714C49.2847 187.96 51.933 181.742 53.0893 179.062C56.9602 189.476 59.4601 195.69 60.5929 197.714L79.6157 204.464L60.5929 213.159L53.3549 230.677L45.1442 213.159C42.9959 211.963 37.1914 209.096 27.7269 204.553C29.2424 203.889 35.0469 201.608 45.1442 197.714Z"
          stroke="black"
          stroke-width="4.8744"
          stroke-miterlimit="5.28"
        />
</g>
</g>
<g id="estrela-p">
<path
        id="Vector_76"
        fill-rule="evenodd"
        clip-rule="evenodd"
        d="M285.992 222.355C288.211 217.137 289.625 213.809 290.246 212.375C292.316 217.945 293.656 221.273 294.258 222.355L304.441 225.965L294.258 230.621L290.387 239.992L285.992 230.621C284.844 229.98 281.738 228.445 276.672 226.016C277.484 225.66 280.59 224.441 285.992 222.355Z"
        fill="#0794FF"
      />
<g id="Group_22">
<path
          id="Vector_77"
          d="M285.993 222.355C288.211 217.137 289.625 213.809 290.246 212.375C292.317 217.945 293.657 221.273 294.258 222.355L304.442 225.965L294.258 230.621L290.387 239.992L285.993 230.621C284.844 229.98 281.739 228.445 276.672 226.016C277.485 225.66 280.59 224.441 285.993 222.355Z"
          stroke="black"
          stroke-width="2.60832"
          stroke-miterlimit="5.28"
        />
</g>
</g>
</g>
</svg>
