<svg width="25" height="29" viewBox="0 0 25 29" fill="none" xmlns="http://www.w3.org/2000/svg">
<path d="M22.2683 27.3276V2.31849H22.9771V0H2.00847V2.31849H2.71757V27.3657H-0.00610352V29H10.0303V20.6382H14.9926V29H25.0293V27.3657H22.2683V27.3276ZM8.12762 18.2058H5.47856V15.5072H8.12762V18.2058ZM8.12762 12.3905H5.47856V9.69212H8.12762V12.3905ZM8.12762 6.57535H5.47856V3.8387H8.12762V6.57535ZM13.8361 18.2058H11.1871V15.5072H13.8361V18.2058ZM13.8361 12.3905H11.1871V9.69212H13.8361V12.3905ZM13.8361 6.57535H11.1871V3.8387H13.8361V6.57535ZM19.5446 18.2058H16.8583V15.5072H19.5446V18.2058ZM19.5446 12.3905H16.8583V9.69212H19.5446V12.3905ZM19.5446 6.57535H16.8583V3.8387H19.5446V6.57535Z" fill="white"/>
</svg>
