<svg width="28" height="20" viewBox="0 0 28 20" fill="none" xmlns="http://www.w3.org/2000/svg">
<path d="M18.8632 0.768619C19.6413 0.17906 20.6023 -0.0768537 21.5809 0.0488512C22.5529 0.175143 23.4192 0.666215 24.0173 1.43513C25.2523 3.01721 24.9494 5.29693 23.3444 6.51423C22.5642 7.10379 21.6053 7.36108 20.6259 7.23341C19.6978 7.113 18.8763 6.65364 18.2841 5.94876C18.3328 5.69089 18.3611 5.42518 18.3611 5.15439C18.3611 4.24038 18.0646 3.39158 17.5664 2.6959C17.7748 1.93403 18.227 1.25186 18.8632 0.768619Z" fill="white"/>
<path d="M14.0276 1.53125C16.0546 1.53125 17.703 3.15602 17.703 5.15398C17.703 7.15057 16.0546 8.77749 14.0276 8.77749C12.0005 8.77749 10.3516 7.15057 10.3516 5.15398C10.3522 3.15602 12.0011 1.53125 14.0276 1.53125Z" fill="white"/>
<path d="M6.12233 0.112618C8.05012 -0.328524 9.9791 0.823967 10.4938 2.69035C9.99223 3.38741 9.69453 4.2368 9.69453 5.15413C9.69453 5.42688 9.72336 5.6918 9.77268 5.94967C9.262 6.55744 8.56399 6.99134 7.78325 7.17089C6.82751 7.39117 5.84233 7.22787 5.0077 6.71682C4.17426 6.20421 3.59378 5.40417 3.37245 4.46158C2.91565 2.5155 4.14861 0.56355 6.12233 0.112618Z" fill="white"/>
<path d="M0.0507812 18.7277V15.6427C0.0507812 13.9458 0.688935 12.3211 1.84632 11.0668C3.08663 9.72259 4.78354 8.93488 6.62521 8.84853C8.28155 8.76629 9.87146 9.27029 11.1683 10.2628C8.41499 11.3785 6.46891 14.0463 6.46891 17.1566V18.7295L0.0507812 18.7277Z" fill="white"/>
<path d="M20.9299 20.2412H7.125V17.1548C7.125 13.4044 10.2213 10.3524 14.0276 10.3524C17.8336 10.3524 20.9299 13.4038 20.9299 17.1548V20.2412Z" fill="white"/>
<path d="M28.0048 18.7277H21.5873V17.1546C21.5873 14.0423 19.6412 11.3739 16.8867 10.2602C18.092 9.34149 19.567 8.83887 21.1036 8.83887C24.9085 8.83887 28.0048 11.8908 28.0048 15.6418V18.7277Z" fill="white"/>
</svg>
