<?xml version="1.0" encoding="UTF-8" standalone="no"?>
<svg
   width="2193"
   height="730"
   viewBox="0 0 2193 730"
   fill="none"
   version="1.1"
   id="svg122"
   sodipodi:docname="infographic.svg"
   inkscape:version="1.1.2 (1:1.1+202202050852+0a00cf5339)"
   xmlns:inkscape="http://www.inkscape.org/namespaces/inkscape"
   xmlns:sodipodi="http://sodipodi.sourceforge.net/DTD/sodipodi-0.dtd"
   xmlns="http://www.w3.org/2000/svg"
   xmlns:svg="http://www.w3.org/2000/svg">
  <defs
     id="defs126" />
  <sodipodi:namedview
     id="namedview124"
     pagecolor="#ffffff"
     bordercolor="#666666"
     borderopacity="1.0"
     inkscape:pageshadow="2"
     inkscape:pageopacity="0.0"
     inkscape:pagecheckerboard="0"
     showgrid="FALSE"
     showguides="true"
     inkscape:guide-bbox="true"
     inkscape:zoom="0.61012312"
     inkscape:cx="1279.25"
     inkscape:cy="364.68049"
     inkscape:window-width="1426"
     inkscape:window-height="1016"
     inkscape:window-x="1134"
     inkscape:window-y="27"
     inkscape:window-maximized="0"
     inkscape:current-layer="svg122">
    <sodipodi:guide
       position="1170.1836,871.3504"
       orientation="1,0"
       id="guide24131" />
    <sodipodi:guide
       position="2179.8879,675.91256"
       orientation="0,-1"
       id="guide28309" />
    <sodipodi:guide
       position="2183.1659,520.20628"
       orientation="0,-1"
       id="guide28311" />
    <sodipodi:guide
       position="2179.8879,375.97309"
       orientation="0,-1"
       id="guide28313" />
    <sodipodi:guide
       position="2179.8879,208.79372"
       orientation="0,-1"
       id="guide28315" />
    <sodipodi:guide
       position="2179.8879,54.726457"
       orientation="0,-1"
       id="guide28317" />
  </sodipodi:namedview>
  <path
     d="M971.5 678.5H733.5V276.076H470.5"
     stroke="#08A3B3"
     stroke-width="18.0286"
     stroke-linecap="round"
     stroke-linejoin="round"
     id="path2" />
  <path
     d="M495 241H782.5V535H968"
     stroke="#0794FF"
     stroke-width="18.0286"
     stroke-linecap="round"
     stroke-linejoin="round"
     id="path4" />
  <path
     d="M968 365H828V205H517"
     stroke="#B71DFF"
     stroke-width="18.0286"
     stroke-linecap="round"
     stroke-linejoin="round"
     id="path6" />
  <path
     d="M515 174L912 176"
     stroke="#FF25F0"
     stroke-width="18.0286"
     stroke-miterlimit="2"
     stroke-linecap="round"
     stroke-linejoin="round"
     id="path8" />
  <path
     d="M471 140H824V56H944"
     stroke="#FF6002"
     stroke-width="18.0286"
     stroke-linecap="round"
     stroke-linejoin="round"
     id="path10" />
  <path
     d="M313 80C329.016 80 342 67.0163 342 51C342 34.9837 329.016 22 313 22C296.984 22 284 34.9837 284 51C284 67.0163 296.984 80 313 80Z"
     fill="white"
     id="path12" />
  <path
     d="M20.8658 158.53C6.24651 167.44 1.6189 186.515 10.5297 201.134C19.4404 215.754 38.5152 220.381 53.1344 211.47L20.8658 158.53ZM105.5 164L136.466 165.452L105.5 164ZM96.0001 261.5L65.0082 262.21C65.3939 279.05 79.1561 292.5 96.0001 292.5V261.5ZM171 261.5V292.5C188.121 292.5 202 278.621 202 261.5H171ZM171 153L197.313 136.61C189.997 124.864 175.781 119.39 162.477 123.195C149.172 127 140 139.162 140 153H171ZM244.5 271L218.187 287.39C223.994 296.713 234.3 302.267 245.28 301.99C256.26 301.714 266.274 295.648 271.604 286.045L244.5 271ZM310 153H341C341 138.872 331.448 126.531 317.771 122.99C304.094 119.448 289.752 125.602 282.896 137.955L310 153ZM310 261.5H279C279 274.385 286.97 285.926 299.02 290.49C311.069 295.054 324.685 291.689 333.221 282.037L310 261.5ZM386.5 175L371.98 147.611C368.692 149.354 365.744 151.675 363.279 154.463L386.5 175ZM428 153L443.38 126.084C434.154 120.812 422.869 120.633 413.48 125.611L428 153ZM484 185L512.397 197.435C518.753 182.919 513.139 165.947 499.38 158.084L484 185ZM450.5 261.5V292.5C462.812 292.5 473.958 285.214 478.897 273.935L450.5 261.5ZM402.5 261.5L381.139 283.966C386.901 289.445 394.549 292.5 402.5 292.5V261.5ZM372 232.5L341.941 224.92C339.205 235.771 342.529 247.255 350.639 254.966L372 232.5ZM53.1344 211.47C66.8534 203.108 78.2901 195.46 87.1961 189.554C96.8341 183.162 101.976 179.883 105.104 178.356C106.715 177.569 105.326 178.518 102.11 178.913C98.0291 179.415 89.5251 179.05 82.0391 172.292C75.7716 166.633 74.7163 160.367 74.6329 159.905C74.4696 158.999 74.6765 159.511 74.5341 162.548L136.466 165.452C136.699 160.489 136.687 154.657 135.648 148.9C134.69 143.587 132.103 133.961 123.586 126.271C113.85 117.482 102.377 116.414 94.5461 117.376C87.5811 118.232 81.6601 120.806 77.8961 122.644C70.2744 126.367 61.2907 132.338 52.929 137.884C43.8348 143.915 33.3968 150.892 20.8658 158.53L53.1344 211.47ZM74.5341 162.548C74.0058 173.818 71.7381 191.076 69.3483 210.347C67.1681 227.928 64.6943 248.503 65.0082 262.21L126.992 260.79C126.806 252.664 128.482 237.289 130.877 217.978C133.062 200.357 135.794 179.782 136.466 165.452L74.5341 162.548ZM96.0001 292.5H171V230.5H96.0001V292.5ZM202 261.5V153H140V261.5H202ZM144.687 169.39L218.187 287.39L270.813 254.61L197.313 136.61L144.687 169.39ZM271.604 286.045L337.104 168.045L282.896 137.955L217.396 255.955L271.604 286.045ZM279 153V261.5H341V153H279ZM333.221 282.037L409.721 195.537L363.279 154.463L286.779 240.963L333.221 282.037ZM401.02 202.389L442.52 180.389L413.48 125.611L371.98 147.611L401.02 202.389ZM412.62 179.916L468.62 211.916L499.38 158.084L443.38 126.084L412.62 179.916ZM455.603 172.565L422.103 249.065L478.897 273.935L512.397 197.435L455.603 172.565ZM450.5 230.5H402.5V292.5H450.5V230.5ZM423.861 239.034L393.361 210.034L350.639 254.966L381.139 283.966L423.861 239.034ZM402.059 240.08L416.559 182.58L356.441 167.42L341.941 224.92L402.059 240.08ZM402.059 240.08L407.229 219.58L347.111 204.42L341.941 224.92L402.059 240.08Z"
     fill="white"
     id="path14" />
  <path
     d="M312.715 94.65C336.774 94.65 356.277 75.153 356.277 51.1006C356.277 27.0487 336.774 7.55066 312.715 7.55066C288.655 7.55066 269.152 27.0487 269.152 51.1006C269.178 75.141 288.666 94.624 312.715 94.65ZM312.715 25.5713C326.818 25.5713 338.251 37.0012 338.251 51.1006C338.251 65.2 326.818 76.63 312.715 76.63C298.611 76.63 287.178 65.2 287.178 51.1006C287.178 37.0012 298.611 25.5713 312.715 25.5713Z"
     fill="#0A0505"
     id="path16" />
  <path
     d="M514.005 167.796C501.633 138.516 475.501 117.307 444.295 111.219C413.089 105.131 380.899 114.962 358.422 137.444C357.137 138.729 355.899 140.051 354.691 141.396C349.446 122.546 332.286 109.495 312.715 109.469H312.294C297.949 109.462 284.521 116.514 276.386 128.325L240.935 179.84L205.484 128.325C197.351 116.515 183.925 109.463 169.582 109.469H169.155C155.609 109.471 142.837 115.78 134.606 126.535C126.375 115.779 113.602 109.47 100.056 109.469H99.8032C93.3992 109.461 87.0732 110.876 81.2852 113.614L25.2299 139.936C4.49751 149.626 -5.20209 173.699 3.02411 195.049C11.2503 216.4 34.5979 227.748 56.475 221.029V256.944C56.4649 275.605 68.3548 292.196 86.0332 298.189C103.71 304.181 123.242 298.242 134.588 283.423C143.041 294.472 156.272 300.812 170.183 300.481C184.094 300.149 197.007 293.186 204.925 281.747C213.01 293.452 226.298 300.478 240.526 300.572H241.29C255.53 300.489 268.832 293.458 276.921 281.741C286.54 295.637 303.336 302.711 320.002 299.885C336.669 297.059 350.192 284.846 354.691 268.556C355.893 269.907 357.137 271.223 358.422 272.514C390.736 304.862 441.447 309.783 479.381 284.251C517.313 258.719 531.83 209.896 514.005 167.796ZM125.544 256.938C125.544 271.038 114.111 282.467 100.008 282.467C85.9042 282.467 74.471 271.038 74.471 256.938V200.666C74.477 199.025 73.6394 197.496 72.2538 196.617C70.8682 195.738 69.1281 195.631 67.6451 196.335L54.6303 202.45C41.8749 208.407 26.7027 202.921 20.7117 190.184C14.7208 177.447 20.1713 162.266 32.8969 156.245L88.9042 129.923C92.2972 128.322 96.0032 127.491 99.7552 127.49H100.008C114.11 127.487 125.544 138.915 125.544 153.013V256.932V256.938ZM338.251 167.118C338.155 167.346 338.053 167.568 337.957 167.796C327.935 191.57 327.935 218.382 337.957 242.155C338.053 242.384 338.155 242.612 338.251 242.834V256.938C338.251 271.038 326.818 282.467 312.715 282.467C298.611 282.467 287.178 271.038 287.178 256.938V250.084C287.189 248.801 286.682 247.568 285.772 246.663C284.861 245.759 283.624 245.26 282.341 245.279C280.76 245.274 279.285 246.07 278.423 247.393L262.092 271.499C257.356 278.385 249.545 282.512 241.187 282.546H240.641C232.281 282.513 224.468 278.385 219.73 271.499L203.405 247.393C202.541 246.071 201.067 245.275 199.487 245.279C198.203 245.26 196.965 245.759 196.054 246.663C195.142 247.567 194.635 248.801 194.644 250.084V256.938C194.644 271.038 183.211 282.467 169.107 282.467C155.004 282.467 143.57 271.038 143.57 256.938V153.019C143.57 138.921 155.004 127.493 169.107 127.496H169.534C177.937 127.492 185.804 131.626 190.564 138.549L236.945 205.898C237.844 207.188 239.317 207.957 240.89 207.957C242.462 207.957 243.936 207.188 244.835 205.898L291.21 138.549C295.978 131.619 303.857 127.484 312.27 127.496H312.691C326.795 127.493 338.23 138.925 338.227 153.025L338.251 167.118ZM425.978 282.449C383.169 282.449 348.466 247.757 348.466 204.961C348.466 162.165 383.169 127.472 425.978 127.472C468.787 127.472 503.49 162.165 503.49 204.961C503.5 247.764 468.793 282.467 425.978 282.467V282.449Z"
     fill="#0A0505"
     id="path18" />
  <path
     d="M425.077 179.348C410.973 179.348 399.54 190.777 399.54 204.877C399.54 218.976 410.973 230.406 425.077 230.406C439.18 230.406 450.614 218.976 450.614 204.877C450.614 190.777 439.18 179.348 425.077 179.348ZM425.077 212.385C420.929 212.385 417.566 209.024 417.566 204.877C417.566 200.73 420.929 197.368 425.077 197.368C429.225 197.368 432.588 200.73 432.588 204.877C432.581 209.021 429.222 212.379 425.077 212.385Z"
     fill="#0A0505"
     id="path20" />
  <path
     d="M2161.92 158.531L937.041 156.05C923.27 156.023 912.095 166.505 912.082 179.463L912.024 234.292C912.011 247.25 923.164 257.777 936.935 257.805L2161.82 260.286C2175.59 260.314 2186.76 249.832 2186.78 236.874L2186.83 182.044C2186.85 169.086 2175.7 158.559 2161.92 158.531Z"
     fill="white"
     stroke="white"
     stroke-width="5.06215"
     stroke-linejoin="bevel"
     id="path22" />
  <path
     d="M2187.96 161.224H2172.96V258.224H2187.96V161.224Z"
     fill="#FF25F0"
     stroke="#FF25F0"
     stroke-width="9.59864"
     stroke-miterlimit="1.92"
     stroke-linecap="square"
     id="path24" />
  <path
     d="M968.958 174.844C954.491 174.844 942.763 186.568 942.763 201.03C942.763 215.493 954.491 227.217 968.958 227.217C983.42 227.217 995.15 215.493 995.15 201.03C995.15 186.568 983.42 174.844 968.958 174.844ZM968.958 209.717C964.149 209.724 960.247 205.83 960.245 201.023C960.243 196.216 964.142 192.319 968.95 192.321C973.758 192.323 977.65 196.224 977.65 201.03C977.65 205.828 973.757 209.717 968.958 209.717Z"
     fill="#FF25F0"
     id="path28" />
  <path
     d="M968.958 174.844C983.42 174.844 995.15 186.568 995.15 201.03C995.15 215.493 983.42 227.217 968.958 227.217C954.491 227.217 942.763 215.493 942.763 201.03C942.763 186.568 954.491 174.844 968.958 174.844ZM968.958 209.717C973.764 209.717 977.66 205.821 977.66 201.015C977.66 196.21 973.757 192.316 968.95 192.321C964.143 192.325 960.25 196.225 960.257 201.03C960.257 203.336 961.174 205.548 962.806 207.177C964.438 208.806 966.651 209.72 968.958 209.717ZM968.958 168.701C953.579 168.711 940.334 179.543 937.275 194.609C934.216 209.676 942.19 224.813 956.348 230.816C970.604 236.86 987.15 231.952 995.8 219.112C1004.45 206.271 1002.78 189.102 991.82 178.167C985.76 172.1 977.53 168.694 968.958 168.701ZM968.958 203.586C967.546 203.586 966.401 202.442 966.401 201.03C966.401 199.619 967.546 198.475 968.958 198.475C970.37 198.475 971.514 199.619 971.514 201.03C971.508 202.439 970.367 203.58 968.958 203.586Z"
     fill="#0B0808"
     id="path30" />
  <path
     d="M1012.39 201.122H1015.36C1015.39 188.614 1024.21 177.848 1036.47 175.354C1048.73 172.859 1061.06 179.323 1065.97 190.826C1070.89 202.328 1067.04 215.701 1056.76 222.835C1046.49 229.968 1032.61 228.898 1023.55 220.272C1018.3 215.298 1015.34 208.383 1015.36 201.156H1009.42C1009.46 216.676 1020.52 229.984 1035.77 232.86C1051.03 235.735 1066.17 227.368 1071.86 212.925C1077.54 198.482 1072.16 182.04 1059.03 173.754C1045.9 165.468 1028.74 167.677 1018.14 179.015C1012.54 184.998 1009.42 192.884 1009.42 201.076L1012.39 201.122Z"
     fill="black"
     id="path32" />
  <path
     d="M1015.18 192.149C1014.65 190.982 1013.97 189.885 1013.17 188.883C1012.11 187.58 1010.75 186.553 1009.21 185.892C1007.83 185.323 1006.34 185.038 1004.85 185.055C1003.9 185.051 1002.95 185.159 1002.02 185.376C1000.47 185.753 999.03 186.5 997.83 187.553C996.48 188.799 995.38 190.303 994.61 191.977L999.97 194.555C1000.29 193.857 1000.7 193.202 1001.18 192.607C1001.62 192.052 1002.18 191.614 1002.83 191.335C1003.48 191.088 1004.16 190.971 1004.85 190.991C1005.33 190.987 1005.81 191.041 1006.28 191.152C1006.92 191.309 1007.51 191.624 1007.99 192.069C1008.76 192.829 1009.38 193.732 1009.81 194.727L1015.18 192.206V192.149Z"
     fill="black"
     id="path34" />
  <path
     d="M1071.13 196.206H1084.89C1086.53 196.206 1087.86 194.877 1087.86 193.238C1087.86 191.598 1086.53 190.269 1084.89 190.269H1071.13C1069.49 190.269 1068.16 191.598 1068.16 193.238C1068.16 194.877 1069.49 196.206 1071.13 196.206Z"
     fill="black"
     id="path36" />
  <path
     d="M2160.58 5.52859L940.124 3.05279C925.755 3.02359 914.095 13.9803 914.081 27.5251L914.026 80.23C914.011 93.775 925.649 104.779 940.018 104.808L2160.47 107.283C2174.84 107.313 2186.5 96.356 2186.52 82.811L2186.57 30.1065C2186.58 16.5616 2174.95 5.55769 2160.58 5.52859Z"
     fill="white"
     stroke="white"
     stroke-width="5.05766"
     stroke-linejoin="bevel"
     id="path38" />
  <path
     d="M2186.45 9.04688H2170.45V106.047H2186.45V9.04688Z"
     fill="#FF5F00"
     stroke="#FF5F00"
     stroke-width="9.59012"
     stroke-miterlimit="1.92"
     stroke-linecap="square"
     id="path40" />
  <path
     d="M966.716 39.2416C952.249 39.2416 940.521 50.9658 940.521 65.4282C940.521 79.891 952.249 91.615 966.716 91.615C981.18 91.615 992.91 79.891 992.91 65.4282C992.91 50.9658 981.18 39.2416 966.716 39.2416ZM966.716 74.126C961.91 74.126 958.015 70.2321 958.015 65.4282C958.015 60.6243 961.91 56.7299 966.716 56.7299C971.521 56.7299 975.417 60.6243 975.417 65.4282C975.42 67.736 974.504 69.9503 972.872 71.5822C971.239 73.214 969.024 74.13 966.716 74.126Z"
     fill="#FF6002"
     id="path44" />
  <path
     d="M966.716 39.2415C981.18 39.2415 992.91 50.9656 992.91 65.4281C992.91 79.891 981.18 91.615 966.716 91.615C952.249 91.615 940.522 79.891 940.522 65.4281C940.522 50.9656 952.249 39.2415 966.716 39.2415ZM966.716 74.126C971.523 74.133 975.424 70.2412 975.428 65.4357C975.432 60.6303 971.538 56.7319 966.731 56.7298C961.924 56.7277 958.026 60.6226 958.026 65.4281C958.026 70.2275 961.915 74.12 966.716 74.126ZM966.716 33.0989C950.126 33.1205 936.25 45.7008 934.611 62.2043C932.973 78.708 944.106 93.769 960.367 97.05C976.629 100.331 992.73 90.765 997.63 74.918C1002.52 59.0709 994.61 42.0952 979.33 35.643C975.336 33.9557 971.048 33.0904 966.716 33.0989ZM966.716 67.9838C965.304 67.9838 964.159 66.8395 964.159 65.4281C964.159 64.0167 965.304 62.8725 966.716 62.8725C968.128 62.8725 969.272 64.0167 969.272 65.4281C969.272 66.8395 968.128 67.9838 966.716 67.9838Z"
     fill="#0B0808"
     id="path46" />
  <path
     d="M1016.66 81.828C1024.18 58.7895 1015.04 33.5942 994.49 20.7333L991.34 25.7644C1009.57 37.1817 1017.68 59.5357 1011.02 79.983L1016.66 81.828Z"
     fill="black"
     id="path48" />
  <path
     d="M1037.29 88.578C1039.74 81.106 1040.99 73.292 1041 65.4281C1041.04 49.3046 1035.8 33.6106 1026.1 20.7333L1021.29 24.3089C1034.7 42.1877 1038.56 65.4795 1031.61 86.721L1037.25 88.578H1037.29Z"
     fill="black"
     id="path50" />
  <path
     d="M1055.44 44.1237C1058.27 56.0216 1058.7 68.3631 1056.72 80.4301L1059.65 80.9111L1060.27 78.0111L1037.82 73.1981L1036.58 79.0081L1062.07 84.4641L1062.57 81.3921C1063.46 76.1171 1063.91 70.7776 1063.93 65.4282C1063.93 57.7865 1063.04 50.1705 1061.27 42.7371L1055.44 44.1237Z"
     fill="black"
     id="path52" />
  <path
     d="M996.09 68.4995H1015.39V62.5631H996.09"
     fill="black"
     id="path54" />
  <path
     d="M1014.16 50.3579L1034.18 41.9691L1031.89 36.5026L1011.87 44.8914"
     fill="black"
     id="path56" />
  <path
     d="M1062.55 39.2416H1059.58C1059.58 40.6416 1058.45 41.7785 1057.05 41.7972C1056.01 41.8001 1055.08 41.1775 1054.68 40.2206C1054.28 39.2637 1054.5 38.1619 1055.24 37.4309C1055.72 36.9531 1056.37 36.6853 1057.05 36.686C1057.73 36.692 1058.38 36.9635 1058.86 37.4423C1059.34 37.9231 1059.61 38.5745 1059.61 39.253H1065.54C1065.54 35.2017 1062.68 31.7149 1058.71 30.9248C1054.73 30.1348 1050.75 32.2617 1049.2 36.0047C1047.65 39.7477 1048.96 44.0644 1052.33 46.315C1055.7 48.5655 1060.19 48.1231 1063.06 45.2582C1064.65 43.6648 1065.54 41.5051 1065.54 39.253L1062.55 39.2416Z"
     fill="black"
     id="path58" />
  <path
     d="M1038.6 91.615H1035.64C1035.64 92.294 1035.37 92.947 1034.89 93.425C1034.41 93.904 1033.76 94.172 1033.08 94.17C1032.4 94.173 1031.75 93.905 1031.27 93.425C1030.79 92.945 1030.52 92.293 1030.52 91.615C1030.52 90.936 1030.79 90.284 1031.27 89.804C1031.75 89.324 1032.4 89.056 1033.08 89.059C1033.76 89.056 1034.41 89.324 1034.89 89.804C1035.37 90.284 1035.64 90.936 1035.64 91.615H1041.57C1041.57 87.563 1038.71 84.077 1034.74 83.286C1030.76 82.496 1026.78 84.623 1025.23 88.366C1023.68 92.109 1024.99 96.426 1028.36 98.677C1031.73 100.927 1036.22 100.485 1039.09 97.62C1040.68 96.029 1041.58 93.868 1041.57 91.615H1038.6Z"
     fill="black"
     id="path60" />
  <path
     d="M1018.14 83.845H1015.17C1015.17 85.253 1014.03 86.394 1012.62 86.4C1011.27 86.31 1010.22 85.19 1010.22 83.839C1010.22 82.488 1011.27 81.368 1012.62 81.278C1014.03 81.284 1015.17 82.431 1015.17 83.845H1021.11C1021.11 81.593 1020.22 79.433 1018.62 77.84C1015.31 74.519 1009.93 74.516 1006.61 77.832C1003.29 81.149 1003.29 86.529 1006.61 89.845C1009.93 93.162 1015.31 93.159 1018.62 89.838C1020.21 88.248 1021.11 86.093 1021.11 83.845H1018.14Z"
     fill="black"
     id="path62" />
  <path
     d="M994.4 20.6417H991.43C991.43 21.8544 990.56 22.8945 989.37 23.1268C988.18 23.3592 986.99 22.7192 986.53 21.5977C986.07 20.4763 986.47 19.185 987.48 18.5126C988.48 17.8402 989.83 17.9734 990.69 18.831C991.17 19.3096 991.44 19.9625 991.43 20.6417H997.37C997.37 16.5904 994.51 13.1036 990.53 12.3135C986.56 11.5235 982.58 13.6503 981.03 17.3934C979.48 21.1364 980.79 25.4531 984.16 27.7037C987.53 29.9542 992.02 29.5117 994.88 26.6469C996.48 25.0563 997.37 22.8948 997.37 20.6417H994.4Z"
     fill="black"
     id="path64" />
  <path
     d="M1025.1 16.5275H1022.13C1022.13 17.2062 1021.87 17.858 1021.39 18.338C1020.91 18.8179 1020.25 19.0862 1019.57 19.0831C1018.9 19.0881 1018.25 18.8243 1017.76 18.3497C1016.76 17.3496 1016.76 15.7283 1017.76 14.7282C1018.76 13.7282 1020.39 13.7282 1021.39 14.7282C1021.86 15.209 1022.13 15.8604 1022.13 16.5389H1028.07C1028.07 12.4876 1025.21 9.00083 1021.23 8.21073C1017.26 7.42073 1013.28 9.54763 1011.73 13.2906C1010.18 17.0336 1011.49 21.3503 1014.86 23.6009C1018.23 25.8514 1022.72 25.409 1025.58 22.5441C1027.17 20.9507 1028.07 18.791 1028.07 16.5389L1025.1 16.5275Z"
     fill="black"
     id="path66" />
  <path
     d="M2159.23 311.523L942.096 309.059C926.085 309.026 913.094 321.209 913.078 336.27L913.028 383.485C913.013 398.546 925.979 410.781 941.989 410.814L2159.12 413.278C2175.13 413.31 2188.13 401.127 2188.14 386.066L2188.19 338.851C2188.21 323.791 2175.24 311.555 2159.23 311.523Z"
     fill="white"
     stroke="white"
     stroke-width="5.06287"
     stroke-linejoin="bevel"
     id="path68" />
  <path
     d="M2186.22 312.458H2170.22V408.458H2186.22V312.458Z"
     fill="#B71DFF"
     stroke="#B71DFF"
     stroke-width="9.6"
     stroke-miterlimit="1.92"
     stroke-linecap="square"
     id="path70" />
  <path
     d="M969.429 340.799C954.962 340.799 943.234 352.523 943.234 366.985C943.234 381.448 954.962 393.172 969.429 393.172C983.9 393.172 995.62 381.448 995.62 366.985C995.62 352.523 983.9 340.799 969.429 340.799ZM969.429 375.684C964.623 375.684 960.728 371.789 960.728 366.985C960.728 362.181 964.623 358.287 969.429 358.287C974.234 358.287 978.13 362.181 978.13 366.985C978.13 371.789 974.234 375.684 969.429 375.684Z"
     fill="#B71DFF"
     id="path74" />
  <path
     d="M969.428 340.799C983.9 340.799 995.62 352.523 995.62 366.985C995.62 381.448 983.9 393.172 969.428 393.172C954.962 393.172 943.234 381.448 943.234 366.985C943.234 352.523 954.962 340.799 969.428 340.799ZM969.428 375.684C974.234 375.684 978.13 371.789 978.13 366.985C978.13 362.181 974.234 358.287 969.428 358.287C964.623 358.287 960.728 362.181 960.728 366.985C960.728 371.789 964.623 375.684 969.428 375.684ZM969.428 334.656C952.864 334.683 939.012 347.246 937.379 363.725C935.745 380.203 946.861 395.241 963.098 398.517C979.34 401.793 995.41 392.242 1000.3 376.42C1005.19 360.598 997.3 343.647 982.04 337.2C978.05 335.512 973.76 334.646 969.428 334.656ZM969.428 369.541C968.017 369.541 966.872 368.397 966.872 366.985C966.872 365.574 968.017 364.43 969.428 364.43C970.84 364.43 971.985 365.574 971.985 366.985C971.985 368.397 970.84 369.541 969.428 369.541Z"
     fill="#0B0808"
     id="path76" />
  <path
     d="M1021.36 363.708C1021.36 348.809 1015.96 335.859 1006.7 326.772C997.43 317.684 984.4 312.458 969.474 312.458C967.834 312.458 966.505 313.787 966.505 315.426C966.505 317.065 967.834 318.394 969.474 318.394C983.04 318.394 994.45 323.081 1002.54 331C1010.62 338.919 1015.41 350.173 1015.42 363.708C1015.42 365.347 1016.75 366.676 1018.39 366.676C1020.03 366.676 1021.36 365.347 1021.36 363.708Z"
     fill="black"
     id="path78" />
  <path
     d="M1019.82 337.315V334.347H1015.42V388.977H1019.82C1034.69 388.673 1046.59 376.533 1046.59 361.662C1046.59 346.791 1034.69 334.651 1019.82 334.347V340.283C1027.58 340.104 1034.83 344.139 1038.76 350.827C1042.69 357.516 1042.69 365.809 1038.76 372.497C1034.83 379.186 1027.58 383.221 1019.82 383.041H1018.39V386.009H1021.36V337.315H1018.39V340.283H1019.82V337.315Z"
     fill="black"
     id="path80" />
  <path
     d="M1006.32 399.2H1023.92C1031.2 399.2 1037.11 393.296 1037.12 386.009V382.365C1037.12 380.726 1035.79 379.397 1034.15 379.397C1032.51 379.397 1031.18 380.726 1031.18 382.365V386.044C1031.18 390.054 1027.93 393.303 1023.92 393.309H1006.32C1004.68 393.309 1003.35 394.638 1003.35 396.278C1003.35 397.917 1004.68 399.246 1006.32 399.246V399.2Z"
     fill="black"
     id="path82" />
  <path
     d="M1010.46 390.719H1007.44C1007.45 391.395 1007.18 392.044 1006.7 392.519C1006.22 393.003 1005.57 393.276 1004.89 393.276C1004.2 393.276 1003.55 393.003 1003.07 392.519C1002.08 391.521 1002.08 389.906 1003.07 388.909C1003.55 388.424 1004.2 388.152 1004.89 388.152C1005.57 388.152 1006.22 388.424 1006.7 388.909C1007.18 389.387 1007.45 390.04 1007.44 390.719H1013.38C1013.38 386.875 1010.81 383.506 1007.09 382.508C1003.38 381.51 999.46 383.131 997.53 386.459C995.61 389.788 996.16 393.994 998.88 396.713C1002.2 400.03 1007.58 400.03 1010.89 396.713C1012.48 395.122 1013.38 392.968 1013.38 390.719H1010.46Z"
     fill="black"
     id="path84" />
  <path
     d="M1042.96 376.497C1050.99 376.274 1057.39 369.698 1057.39 361.662C1057.39 353.626 1050.99 347.05 1042.96 346.827C1041.32 346.827 1039.99 348.156 1039.99 349.795C1039.99 351.434 1041.32 352.763 1042.96 352.763C1046.21 352.646 1049.27 354.317 1050.94 357.118C1052.6 359.919 1052.6 363.405 1050.94 366.206C1049.27 369.008 1046.21 370.678 1042.96 370.561C1041.32 370.561 1039.99 371.89 1039.99 373.529C1039.99 375.168 1041.32 376.497 1042.96 376.497Z"
     fill="black"
     id="path86" />
  <path
     d="M2159.23 625.523L942.096 623.059C926.085 623.026 913.094 635.209 913.078 650.27L913.028 697.485C913.013 712.546 925.979 724.781 941.989 724.814L2159.12 727.278C2175.13 727.31 2188.13 715.127 2188.14 700.066L2188.19 652.851C2188.21 637.791 2175.24 625.555 2159.23 625.523Z"
     fill="white"
     stroke="white"
     stroke-width="5.06287"
     stroke-linejoin="bevel"
     id="path88" />
  <path
     d="M2186.98 626.698H2170.98V722.698H2186.98V626.698Z"
     fill="#08A3B3"
     stroke="#08A3B3"
     stroke-width="9.6"
     stroke-miterlimit="1.92"
     stroke-linecap="square"
     id="path90" />
  <path
     d="M969.187 653.298C954.72 653.298 942.993 665.022 942.993 679.485C942.993 693.947 954.72 705.671 969.187 705.671C983.65 705.671 995.38 693.947 995.38 679.485C995.38 665.022 983.65 653.298 969.187 653.298ZM969.187 688.183C964.382 688.183 960.486 684.289 960.486 679.485C960.486 674.681 964.382 670.786 969.187 670.786C973.992 670.786 977.89 674.681 977.89 679.485C977.89 684.289 973.992 688.183 969.187 688.183Z"
     fill="#08A3B3"
     id="path94" />
  <path
     d="M969.187 653.298C983.65 653.298 995.38 665.022 995.38 679.485C995.38 693.947 983.65 705.671 969.187 705.671C954.72 705.671 942.993 693.947 942.993 679.485C942.993 665.022 954.72 653.298 969.187 653.298ZM969.187 688.183C973.992 688.183 977.89 684.288 977.89 679.485C977.89 674.681 973.992 670.786 969.187 670.786C964.382 670.786 960.486 674.681 960.486 679.485C960.486 684.288 964.382 688.183 969.187 688.183ZM969.187 647.155C952.623 647.182 938.77 659.745 937.137 676.224C935.503 692.703 946.62 707.74 962.857 711.016C979.09 714.292 995.17 704.742 1000.06 688.92C1004.95 673.097 997.05 656.146 981.8 649.7C977.81 648.011 973.519 647.146 969.187 647.155ZM969.187 682.04C967.775 682.04 966.63 680.896 966.63 679.485C966.63 678.073 967.775 676.929 969.187 676.929C970.599 676.929 971.743 678.073 971.743 679.485C971.743 680.896 970.599 682.04 969.187 682.04Z"
     fill="#0B0808"
     id="path96" />
  <path
     d="M1061.8 703.012V700.044C1054.37 700.22 1047.43 696.359 1043.67 689.955C1039.9 683.552 1039.9 675.612 1043.67 669.208C1047.43 662.805 1054.37 658.944 1061.8 659.12H1069.03V700.044H1061.8V705.98H1074.96V653.195H1061.8C1047.22 653.195 1035.4 665.011 1035.4 679.588C1035.4 694.164 1047.22 705.98 1061.8 705.98V703.012Z"
     fill="black"
     id="path98" />
  <path
     d="M1074.41 674.878H1085.05C1086.69 674.878 1088.02 673.549 1088.02 671.909C1088.02 670.27 1086.69 668.941 1085.05 668.941H1074.41C1072.77 668.941 1071.44 670.27 1071.44 671.909C1071.44 673.549 1072.77 674.878 1074.41 674.878Z"
     fill="black"
     id="path100" />
  <path
     d="M1074.41 690.016H1085.05C1086.69 690.016 1088.02 688.688 1088.02 687.048C1088.02 685.409 1086.69 684.08 1085.05 684.08H1074.41C1072.77 684.08 1071.44 685.409 1071.44 687.048C1071.44 688.688 1072.77 690.016 1074.41 690.016Z"
     fill="black"
     id="path102" />
  <path
     d="M990.54 659.922L1004.06 646.823C1005.42 645.423 1007.29 644.634 1009.24 644.634C1011.17 644.655 1013.02 645.399 1014.43 646.72C1015.13 647.366 1015.7 648.145 1016.1 649.012C1016.52 649.977 1016.73 651.019 1016.73 652.072V671.05C1016.7 673.052 1017.09 675.038 1017.87 676.883C1019.02 679.447 1020.9 681.616 1023.27 683.117C1025.59 684.6 1028.29 685.395 1031.04 685.41C1034.41 685.393 1037.67 684.174 1040.22 681.971C1041.48 680.911 1041.65 679.026 1040.59 677.76C1039.53 676.494 1037.64 676.327 1036.38 677.387C1034.89 678.698 1032.97 679.419 1030.99 679.416C1028.81 679.418 1026.72 678.6 1025.12 677.124C1024.33 676.383 1023.69 675.49 1023.25 674.499C1022.77 673.416 1022.53 672.244 1022.54 671.061V652.072C1022.55 650.189 1022.16 648.326 1021.39 646.605C1020.32 644.209 1018.56 642.185 1016.34 640.795C1014.21 639.452 1011.75 638.726 1009.23 638.698C1005.72 638.714 1002.36 640.129 999.9 642.629L1002 644.726L999.9 642.594L986.41 655.659C985.23 656.801 985.2 658.682 986.34 659.859C987.48 661.036 989.37 661.064 990.54 659.922Z"
     fill="black"
     id="path104" />
  <path
     d="M2159.64 471.704L941.686 469.238C925.902 469.206 913.094 481.217 913.078 496.065L913.028 544.05C913.013 558.898 925.796 570.961 941.58 570.993L2159.53 573.458C2175.32 573.49 2188.13 561.479 2188.14 546.631L2188.19 498.646C2188.21 483.798 2175.42 471.736 2159.64 471.704Z"
     fill="white"
     stroke="white"
     stroke-width="5.06287"
     stroke-linejoin="bevel"
     id="path106" />
  <path
     d="M2187.32 474.551H2171.32V570.551H2187.32V474.551Z"
     fill="#0794FF"
     stroke="#0794FF"
     stroke-width="9.6"
     stroke-miterlimit="1.92"
     stroke-linecap="square"
     id="path110" />
  <path
     d="M977.62 505.289C963.877 503.504 951.287 513.201 949.502 526.947C947.717 540.693 957.414 553.284 971.16 555.068C984.91 556.853 997.5 547.157 999.28 533.41C1001.06 519.666 991.37 507.079 977.62 505.289ZM973.318 538.446C968.75 537.859 965.523 533.679 966.112 529.111C966.701 524.543 970.883 521.318 975.451 521.909C980.02 522.5 983.24 526.683 982.65 531.251C982.06 535.812 977.88 539.032 973.318 538.446Z"
     fill="#0794FF"
     id="path112" />
  <path
     d="M977.62 505.289C991.37 507.079 1001.06 519.672 999.27 533.416C997.48 547.16 984.89 556.853 971.146 555.066C957.401 553.28 947.707 540.69 949.491 526.945C951.276 513.195 963.874 503.497 977.62 505.289ZM973.318 538.446C977.88 539.039 982.07 535.818 982.66 531.252C983.25 526.686 980.03 522.504 975.465 521.911C970.899 521.318 966.717 524.539 966.124 529.105C965.837 531.298 966.433 533.516 967.783 535.268C969.133 537.021 971.124 538.164 973.318 538.446ZM978.38 499.461C962.995 497.478 948.515 507.181 944.5 522.164C940.485 537.148 948.172 552.791 962.487 558.767C976.802 564.742 993.33 559.207 1001.16 545.816C1006.41 536.847 1006.81 525.844 1002.23 516.517C997.64 507.19 988.69 500.785 978.38 499.461ZM974.075 532.619C973.087 532.495 972.27 531.787 972.008 530.826C971.745 529.865 972.087 528.841 972.875 528.231C973.663 527.622 974.741 527.547 975.605 528.043C976.469 528.538 976.949 529.506 976.821 530.494C976.641 531.834 975.417 532.781 974.075 532.619Z"
     fill="#0B0808"
     id="path114" />
  <path
     d="M1015.47 547.219C1022.15 531.113 1018.8 512.587 1006.9 499.841C1005.82 498.692 1004.02 498.632 1002.87 499.706C1001.72 500.78 1001.66 502.583 1002.74 503.731C1013.1 514.852 1016.02 530.994 1010.22 545.043C1009.62 546.494 1010.31 548.158 1011.76 548.76C1013.21 549.361 1014.88 548.672 1015.48 547.221L1015.47 547.219Z"
     fill="black"
     id="path116" />
  <path
     d="M1031.05 553.685C1033.1 548.682 1034.48 543.432 1035.16 538.069C1037.55 519.866 1031.64 501.551 1019.05 488.183C1018.37 487.38 1017.31 487.018 1016.28 487.241C1015.25 487.464 1014.43 488.237 1014.14 489.249C1013.86 490.262 1014.16 491.349 1014.92 492.077C1029.9 508.032 1034.15 531.279 1025.8 551.507C1025.38 552.45 1025.51 553.543 1026.14 554.363C1026.76 555.184 1027.77 555.605 1028.79 555.464C1029.81 555.324 1030.68 554.643 1031.05 553.685Z"
     fill="black"
     id="path118" />
  <path
     d="M1051.16 562.033C1053.96 555.26 1055.85 548.147 1056.79 540.878C1060.01 516.282 1052.04 491.539 1035.08 473.439C1034.01 472.29 1032.2 472.23 1031.05 473.304C1029.91 474.379 1029.85 476.181 1030.92 477.33C1051.66 499.523 1057.52 531.788 1045.9 559.855C1045.34 561.298 1046.03 562.928 1047.46 563.521C1048.89 564.115 1050.54 563.453 1051.16 562.033Z"
     fill="black"
     id="path120" />
  <text
     xml:space="preserve"
     style="font-style:normal;font-weight:normal;font-size:40px;line-height:1.25;font-family:sans-serif;fill:#000000;fill-opacity:1;stroke:none"
     x="1172.8051"
     y="132.07812"
     id="text1637"><tspan
       sodipodi:role="line"
       id="tspan1635"></tspan></text>
  <text
     xml:space="preserve"
     style="font-size:40px;line-height:1.25;font-family:sans-serif;letter-spacing:0px"
     x="1165.2461"
     y="122.46023"
     id="text14804"><tspan
       sodipodi:role="line"
       id="tspan14802"></tspan></text>
  <text
     xml:space="preserve"
     style="font-size:29.3333px;line-height:1.25;font-family:sans-serif;letter-spacing:0px;fill:#ff650a;fill-opacity:1"
     x="1169.3542"
     y="63.973583"
     id="text17318"><tspan
       sodipodi:role="line"
       x="1169.3542"
       y="63.973583"
       id="tspan17320"
       style="font-size:29.3333px;fill:#ff650a;fill-opacity:1">Trabalho decente em vagas de aprendiz, estágio e emprego</tspan></text>
  <text
     xml:space="preserve"
     style="font-size:29.3333px;line-height:1.25;font-family:sans-serif;letter-spacing:0px;fill:#ff25f0;fill-opacity:1"
     x="1168.4193"
     y="216.72636"
     id="text32458"><tspan
       sodipodi:role="line"
       id="tspan32456"
       x="1168.4193"
       y="216.72636"
       style="font-size:29.3333px;fill:#ff25f0;fill-opacity:1">Cursos e trilhas formativas de desenvolvimento profissional</tspan></text>
  <text
     xml:space="preserve"
     style="font-size:29.3333px;line-height:1.25;font-family:sans-serif;letter-spacing:0px;fill:#b820ff;fill-opacity:1"
     x="1167.478"
     y="349.78821"
     id="text39669"><tspan
       sodipodi:role="line"
       id="tspan39667"
       x="1167.478"
       y="349.78821"
       style="font-size:29.3333px">Defesa do direito à Educação de qualidade para todos e do</tspan><tspan
       sodipodi:role="line"
       x="1167.478"
       y="386.45483"
       style="font-size:29.3333px"
       id="tspan43862">protagonismo jovem</tspan></text>
  <text
     xml:space="preserve"
     style="font-size:29.3333px;line-height:1.25;font-family:sans-serif;letter-spacing:0px;fill:#3e93f7;fill-opacity:1"
     x="1166.8197"
     y="513.77979"
     id="text46046"><tspan
       sodipodi:role="line"
       id="tspan46044"
       x="1166.8197"
       y="513.77979"
       style="font-size:29.3333px">Erradicação do trabalho infantil, precário e de todas as formas</tspan><tspan
       sodipodi:role="line"
       x="1166.8197"
       y="550.44641"
       style="font-size:29.3333px"
       id="tspan51191">de discriminação</tspan></text>
  <text
     xml:space="preserve"
     style="font-size:29.3333px;line-height:1.25;font-family:sans-serif;letter-spacing:0px;fill:#48bbc7;fill-opacity:1"
     x="1169.4723"
     y="668.48547"
     id="text52617"><tspan
       sodipodi:role="line"
       id="tspan52615"
       x="1169.4723"
       y="668.48547"
       style="font-size:29.3333px">Conectar, incluir e formar os jovens para a tecnologia e o </tspan><tspan
       sodipodi:role="line"
       x="1169.4723"
       y="705.1521"
       style="font-size:29.3333px"
       id="tspan59258">mundo digital</tspan><tspan
       sodipodi:role="line"
       x="1169.4723"
       y="741.81873"
       id="tspan52619"
       style="font-size:29.3333px" /><tspan
       sodipodi:role="line"
       x="1169.4723"
       y="778.48535"
       id="tspan52621"
       style="font-size:29.3333px" /></text>
</svg>
