<svg width="522" height="295" viewBox="0 0 522 295" fill="none" xmlns="http://www.w3.org/2000/svg">
<path d="M313 73C329.016 73 342 60.0163 342 44C342 27.9837 329.016 15 313 15C296.984 15 284 27.9837 284 44C284 60.0163 296.984 73 313 73Z" fill="white"/>
<path d="M20.8658 151.53C6.24651 160.44 1.6189 179.515 10.5297 194.134C19.4404 208.754 38.5152 213.381 53.1344 204.47L20.8658 151.53ZM105.5 157L136.466 158.452L105.5 157ZM96.0001 254.5L65.0082 255.21C65.3939 272.05 79.1561 285.5 96.0001 285.5V254.5ZM171 254.5V285.5C188.121 285.5 202 271.621 202 254.5H171ZM171 146L197.313 129.61C189.997 117.864 175.781 112.39 162.477 116.195C149.172 120 140 132.162 140 146H171ZM244.5 264L218.187 280.39C223.994 289.713 234.3 295.267 245.28 294.99C256.26 294.714 266.274 288.648 271.604 279.045L244.5 264ZM310 146H341C341 131.872 331.448 119.531 317.771 115.99C304.094 112.448 289.752 118.602 282.896 130.955L310 146ZM310 254.5H279C279 267.385 286.97 278.926 299.02 283.49C311.069 288.054 324.685 284.689 333.221 275.037L310 254.5ZM386.5 168L371.98 140.611C368.692 142.354 365.744 144.675 363.279 147.463L386.5 168ZM428 146L443.38 119.084C434.154 113.812 422.869 113.633 413.48 118.611L428 146ZM484 178L512.397 190.435C518.753 175.919 513.139 158.947 499.38 151.084L484 178ZM450.5 254.5V285.5C462.812 285.5 473.958 278.214 478.897 266.935L450.5 254.5ZM402.5 254.5L381.139 276.966C386.901 282.445 394.549 285.5 402.5 285.5V254.5ZM372 225.5L341.941 217.92C339.205 228.771 342.529 240.255 350.639 247.966L372 225.5ZM53.1344 204.47C66.8534 196.108 78.2901 188.46 87.1961 182.554C96.8341 176.162 101.976 172.883 105.104 171.356C106.715 170.569 105.326 171.518 102.11 171.913C98.0291 172.415 89.5251 172.05 82.0391 165.292C75.7716 159.633 74.7163 153.367 74.6329 152.905C74.4696 151.999 74.6765 152.511 74.5341 155.548L136.466 158.452C136.699 153.489 136.687 147.657 135.648 141.9C134.69 136.587 132.103 126.961 123.586 119.271C113.85 110.482 102.377 109.414 94.5461 110.376C87.5811 111.232 81.6601 113.806 77.8961 115.644C70.2744 119.367 61.2907 125.338 52.929 130.884C43.8348 136.915 33.3968 143.892 20.8658 151.53L53.1344 204.47ZM74.5341 155.548C74.0058 166.818 71.7381 184.076 69.3483 203.347C67.1681 220.928 64.6943 241.503 65.0082 255.21L126.992 253.79C126.806 245.664 128.482 230.289 130.877 210.978C133.062 193.357 135.794 172.782 136.466 158.452L74.5341 155.548ZM96.0001 285.5H171V223.5H96.0001V285.5ZM202 254.5V146H140V254.5H202ZM144.687 162.39L218.187 280.39L270.813 247.61L197.313 129.61L144.687 162.39ZM271.604 279.045L337.104 161.045L282.896 130.955L217.396 248.955L271.604 279.045ZM279 146V254.5H341V146H279ZM333.221 275.037L409.721 188.537L363.279 147.463L286.779 233.963L333.221 275.037ZM401.02 195.389L442.52 173.389L413.48 118.611L371.98 140.611L401.02 195.389ZM412.62 172.916L468.62 204.916L499.38 151.084L443.38 119.084L412.62 172.916ZM455.603 165.565L422.103 242.065L478.897 266.935L512.397 190.435L455.603 165.565ZM450.5 223.5H402.5V285.5H450.5V223.5ZM423.861 232.034L393.361 203.034L350.639 247.966L381.139 276.966L423.861 232.034ZM402.059 233.08L416.559 175.58L356.441 160.42L341.941 217.92L402.059 233.08ZM402.059 233.08L407.229 212.58L347.111 197.42L341.941 217.92L402.059 233.08Z" fill="white"/>
<path d="M312.715 87.65C336.774 87.65 356.277 68.153 356.277 44.1006C356.277 20.0487 336.774 0.550659 312.715 0.550659C288.655 0.550659 269.152 20.0487 269.152 44.1006C269.178 68.141 288.666 87.624 312.715 87.65ZM312.715 18.5713C326.818 18.5713 338.251 30.0012 338.251 44.1006C338.251 58.2 326.818 69.63 312.715 69.63C298.611 69.63 287.178 58.2 287.178 44.1006C287.178 30.0012 298.611 18.5713 312.715 18.5713Z" fill="#0A0505"/>
<path d="M514.005 160.796C501.633 131.516 475.501 110.307 444.295 104.219C413.089 98.131 380.899 107.962 358.422 130.444C357.137 131.729 355.899 133.051 354.691 134.396C349.446 115.546 332.286 102.495 312.715 102.469H312.294C297.949 102.462 284.521 109.514 276.386 121.325L240.935 172.84L205.484 121.325C197.351 109.515 183.925 102.463 169.582 102.469H169.155C155.609 102.471 142.837 108.78 134.606 119.535C126.375 108.779 113.602 102.47 100.056 102.469H99.8032C93.3992 102.461 87.0732 103.876 81.2852 106.614L25.2299 132.936C4.49751 142.626 -5.20209 166.699 3.02411 188.049C11.2503 209.4 34.5979 220.748 56.475 214.029V249.944C56.4649 268.605 68.3548 285.196 86.0332 291.189C103.71 297.181 123.242 291.242 134.588 276.423C143.041 287.472 156.272 293.812 170.183 293.481C184.094 293.149 197.007 286.186 204.925 274.747C213.01 286.452 226.298 293.478 240.526 293.572H241.29C255.53 293.489 268.832 286.458 276.921 274.741C286.54 288.637 303.336 295.711 320.002 292.885C336.669 290.059 350.192 277.846 354.691 261.556C355.893 262.907 357.137 264.223 358.422 265.514C390.736 297.862 441.447 302.783 479.381 277.251C517.313 251.719 531.83 202.896 514.005 160.796ZM125.544 249.938C125.544 264.038 114.111 275.467 100.008 275.467C85.9042 275.467 74.471 264.038 74.471 249.938V193.666C74.477 192.025 73.6394 190.496 72.2538 189.617C70.8682 188.738 69.1281 188.631 67.6451 189.335L54.6303 195.45C41.8749 201.407 26.7027 195.921 20.7117 183.184C14.7208 170.447 20.1713 155.266 32.8969 149.245L88.9042 122.923C92.2972 121.322 96.0032 120.491 99.7552 120.49H100.008C114.11 120.487 125.544 131.915 125.544 146.013V249.932V249.938ZM338.251 160.118C338.155 160.346 338.053 160.568 337.957 160.796C327.935 184.57 327.935 211.382 337.957 235.155C338.053 235.384 338.155 235.612 338.251 235.834V249.938C338.251 264.038 326.818 275.467 312.715 275.467C298.611 275.467 287.178 264.038 287.178 249.938V243.084C287.189 241.801 286.682 240.568 285.772 239.663C284.861 238.759 283.624 238.26 282.341 238.279C280.76 238.274 279.285 239.07 278.423 240.393L262.092 264.499C257.356 271.385 249.545 275.512 241.187 275.546H240.641C232.281 275.513 224.468 271.385 219.73 264.499L203.405 240.393C202.541 239.071 201.067 238.275 199.487 238.279C198.203 238.26 196.965 238.759 196.054 239.663C195.142 240.567 194.635 241.801 194.644 243.084V249.938C194.644 264.038 183.211 275.467 169.107 275.467C155.004 275.467 143.57 264.038 143.57 249.938V146.019C143.57 131.921 155.004 120.493 169.107 120.496H169.534C177.937 120.492 185.804 124.626 190.564 131.549L236.945 198.898C237.844 200.188 239.317 200.957 240.89 200.957C242.462 200.957 243.936 200.188 244.835 198.898L291.21 131.549C295.978 124.619 303.857 120.484 312.27 120.496H312.691C326.795 120.493 338.23 131.925 338.227 146.025L338.251 160.118ZM425.978 275.449C383.169 275.449 348.466 240.757 348.466 197.961C348.466 155.165 383.169 120.472 425.978 120.472C468.787 120.472 503.49 155.165 503.49 197.961C503.5 240.764 468.793 275.467 425.978 275.467V275.449Z" fill="#0A0505"/>
<path d="M425.077 172.348C410.973 172.348 399.54 183.777 399.54 197.877C399.54 211.976 410.973 223.406 425.077 223.406C439.18 223.406 450.614 211.976 450.614 197.877C450.614 183.777 439.18 172.348 425.077 172.348ZM425.077 205.385C420.929 205.385 417.566 202.024 417.566 197.877C417.566 193.73 420.929 190.368 425.077 190.368C429.225 190.368 432.588 193.73 432.588 197.877C432.581 202.021 429.222 205.379 425.077 205.385Z" fill="#0A0505"/>
</svg>
