<svg width="661" height="666" viewBox="0 0 661 666" fill="none" xmlns="http://www.w3.org/2000/svg">
<path d="M62.9971 654.283C62.9971 655.111 63.6687 655.783 64.4971 655.783C65.3255 655.783 65.9971 655.111 65.9971 654.283L62.9971 654.283ZM62.9971 18.3545L62.9971 654.283L65.9971 654.283L65.9971 18.3545L62.9971 18.3545Z" fill="black"/>
<path d="M584.522 664C584.522 664.828 585.193 665.5 586.022 665.5C586.85 665.5 587.522 664.828 587.522 664L584.522 664ZM584.521 18.3545L584.522 664L587.522 664L587.521 18.3545L584.521 18.3545Z" fill="black"/>
<rect x="2.83008" y="63.5415" width="655.695" height="166.589" fill="white" stroke="black" stroke-width="4"/>
<path d="M595.358 9.17724C595.358 13.1177 591.21 16.8545 585.344 16.8545C579.478 16.8545 575.33 13.1177 575.33 9.17724C575.33 5.23678 579.478 1.5 585.344 1.5C591.21 1.5 595.358 5.23678 595.358 9.17724Z" stroke="black" stroke-width="3"/>
<path d="M73.834 9.17724C73.834 13.1177 69.6858 16.8545 63.8198 16.8545C57.9539 16.8545 53.8057 13.1177 53.8057 9.17724C53.8057 5.23678 57.9539 1.5 63.8198 1.5C69.6858 1.5 73.834 5.23678 73.834 9.17724Z" stroke="black" stroke-width="3"/>
</svg>
