<svg width="132" height="93" viewBox="0 0 132 93" fill="none" xmlns="http://www.w3.org/2000/svg">
<path d="M32.716 31.2416C18.249 31.2416 6.521 42.9658 6.521 57.4282C6.521 71.891 18.249 83.615 32.716 83.615C47.18 83.615 58.91 71.891 58.91 57.4282C58.91 42.9658 47.18 31.2416 32.716 31.2416ZM32.716 66.126C27.91 66.126 24.015 62.2321 24.015 57.4282C24.015 52.6243 27.91 48.7299 32.716 48.7299C37.521 48.7299 41.417 52.6243 41.417 57.4282C41.42 59.736 40.504 61.9503 38.872 63.5822C37.239 65.214 35.024 66.13 32.716 66.126Z" fill="#FF6002"/>
<path d="M32.7158 31.2415C47.1798 31.2415 58.9098 42.9656 58.9098 57.4281C58.9098 71.891 47.1798 83.615 32.7158 83.615C18.2488 83.615 6.52176 71.891 6.52176 57.4281C6.52176 42.9656 18.2488 31.2415 32.7158 31.2415ZM32.7158 66.126C37.5228 66.133 41.4238 62.2412 41.4278 57.4357C41.4318 52.6303 37.5378 48.7319 32.7308 48.7298C27.9238 48.7277 24.0258 52.6226 24.0258 57.4281C24.0258 62.2275 27.9148 66.12 32.7158 66.126ZM32.7158 25.0989C16.1258 25.1205 2.24981 37.7008 0.610815 54.2043C-1.02719 70.708 10.1058 85.769 26.3668 89.05C42.6288 92.331 58.7298 82.765 63.6298 66.918C68.5198 51.0709 60.6098 34.0952 45.3298 27.643C41.3358 25.9557 37.0478 25.0904 32.7158 25.0989ZM32.7158 59.9838C31.3038 59.9838 30.1588 58.8395 30.1588 57.4281C30.1588 56.0167 31.3038 54.8725 32.7158 54.8725C34.1278 54.8725 35.2718 56.0167 35.2718 57.4281C35.2718 58.8395 34.1278 59.9838 32.7158 59.9838Z" fill="#0B0808"/>
<path d="M82.6599 73.828C90.1799 50.7895 81.0398 25.5942 60.4898 12.7333L57.3398 17.7644C75.5698 29.1817 83.6798 51.5357 77.0198 71.983L82.6599 73.828Z" fill="black"/>
<path d="M103.29 80.578C105.74 73.106 106.99 65.292 107 57.4281C107.04 41.3046 101.8 25.6106 92.1 12.7333L87.29 16.3089C100.7 34.1877 104.56 57.4795 97.61 78.721L103.25 80.578H103.29Z" fill="black"/>
<path d="M121.44 36.1237C124.27 48.0216 124.7 60.3631 122.72 72.4301L125.65 72.9111L126.27 70.0111L103.82 65.1981L102.58 71.0081L128.07 76.4641L128.57 73.3921C129.46 68.1171 129.91 62.7776 129.93 57.4282C129.93 49.7865 129.04 42.1705 127.27 34.7371L121.44 36.1237Z" fill="black"/>
<path d="M62.0898 60.4995H81.3898V54.5631H62.0898" fill="black"/>
<path d="M80.1602 42.3579L100.18 33.9691L97.8901 28.5026L77.8701 36.8914" fill="black"/>
<path d="M128.55 31.2416H125.58C125.58 32.6416 124.45 33.7785 123.05 33.7972C122.01 33.8001 121.08 33.1775 120.68 32.2206C120.28 31.2637 120.5 30.1619 121.24 29.4309C121.72 28.9531 122.37 28.6853 123.05 28.686C123.73 28.692 124.38 28.9635 124.86 29.4423C125.34 29.9231 125.61 30.5745 125.61 31.253H131.54C131.54 27.2017 128.68 23.7149 124.71 22.9248C120.73 22.1348 116.75 24.2617 115.2 28.0047C113.65 31.7477 114.96 36.0644 118.33 38.315C121.7 40.5655 126.19 40.1231 129.06 37.2582C130.65 35.6648 131.54 33.5051 131.54 31.253L128.55 31.2416Z" fill="black"/>
<path d="M104.6 83.615H101.64C101.64 84.294 101.37 84.947 100.89 85.425C100.41 85.904 99.7599 86.172 99.0799 86.17C98.3999 86.173 97.75 85.905 97.27 85.425C96.79 84.945 96.52 84.293 96.52 83.615C96.52 82.936 96.79 82.284 97.27 81.804C97.75 81.324 98.3999 81.056 99.0799 81.059C99.7599 81.056 100.41 81.324 100.89 81.804C101.37 82.284 101.64 82.936 101.64 83.615H107.57C107.57 79.563 104.71 76.077 100.74 75.286C96.7599 74.496 92.7799 76.623 91.2299 80.366C89.6799 84.109 90.9899 88.426 94.3599 90.677C97.7299 92.927 102.22 92.485 105.09 89.62C106.68 88.029 107.58 85.868 107.57 83.615H104.6Z" fill="black"/>
<path d="M84.1401 75.845H81.1702C81.1702 77.253 80.0301 78.394 78.6201 78.4C77.2701 78.31 76.2201 77.19 76.2201 75.839C76.2201 74.488 77.2701 73.368 78.6201 73.278C80.0301 73.284 81.1702 74.431 81.1702 75.845H87.1101C87.1101 73.593 86.2201 71.433 84.6201 69.84C81.3101 66.519 75.9301 66.516 72.6101 69.832C69.2901 73.149 69.2901 78.529 72.6101 81.845C75.9301 85.162 81.3101 85.159 84.6201 81.838C86.2101 80.248 87.1101 78.093 87.1101 75.845H84.1401Z" fill="black"/>
<path d="M60.4002 12.6417H57.4302C57.4302 13.8544 56.5602 14.8945 55.3702 15.1268C54.1802 15.3592 52.9902 14.7192 52.5302 13.5977C52.0702 12.4763 52.4702 11.185 53.4802 10.5126C54.4802 9.84022 55.8302 9.97342 56.6902 10.831C57.1702 11.3096 57.4402 11.9625 57.4302 12.6417H63.3702C63.3702 8.59042 60.5102 5.10362 56.5302 4.31352C52.5602 3.52352 48.5802 5.65032 47.0302 9.39342C45.4802 13.1364 46.7902 17.4531 50.1602 19.7037C53.5302 21.9542 58.0202 21.5117 60.8802 18.6469C62.4802 17.0563 63.3702 14.8948 63.3702 12.6417H60.4002Z" fill="black"/>
<path d="M91.0999 8.52753H88.13C88.13 9.20623 87.87 9.85803 87.39 10.338C86.91 10.8179 86.2499 11.0862 85.5699 11.0831C84.8999 11.0881 84.25 10.8243 83.76 10.3497C82.76 9.34963 82.76 7.72833 83.76 6.72823C84.76 5.72823 86.39 5.72823 87.39 6.72823C87.86 7.20903 88.13 7.86043 88.13 8.53893H94.0699C94.0699 4.48763 91.2099 1.00083 87.2299 0.210731C83.2599 -0.579269 79.2799 1.54763 77.7299 5.29063C76.1799 9.03363 77.4899 13.3503 80.8599 15.6009C84.2299 17.8514 88.7199 17.409 91.5799 14.5441C93.1699 12.9507 94.0699 10.791 94.0699 8.53893L91.0999 8.52753Z" fill="black"/>
</svg>
