<svg width="121" height="88" viewBox="0 0 121 88" fill="none" xmlns="http://www.w3.org/2000/svg">
<path d="M32.4289 28.799C17.9619 28.799 6.23389 40.523 6.23389 54.985C6.23389 69.448 17.9619 81.172 32.4289 81.172C46.8999 81.172 58.6199 69.448 58.6199 54.985C58.6199 40.523 46.8999 28.799 32.4289 28.799ZM32.4289 63.684C27.6229 63.684 23.7279 59.789 23.7279 54.985C23.7279 50.181 27.6229 46.287 32.4289 46.287C37.2339 46.287 41.1299 50.181 41.1299 54.985C41.1299 59.789 37.2339 63.684 32.4289 63.684Z" fill="#B71DFF"/>
<path d="M32.4278 28.799C46.8998 28.799 58.6198 40.5229 58.6198 54.9849C58.6198 69.4479 46.8998 81.172 32.4278 81.172C17.9618 81.172 6.23383 69.4479 6.23383 54.9849C6.23383 40.5229 17.9618 28.799 32.4278 28.799ZM32.4278 63.684C37.2338 63.684 41.1298 59.7889 41.1298 54.9849C41.1298 50.1809 37.2338 46.287 32.4278 46.287C27.6228 46.287 23.7278 50.1809 23.7278 54.9849C23.7278 59.7889 27.6228 63.684 32.4278 63.684ZM32.4278 22.656C15.8638 22.683 2.01185 35.246 0.37885 51.725C-1.25515 68.203 9.86085 83.241 26.0978 86.517C42.3398 89.793 58.4098 80.242 63.2998 64.42C68.1898 48.598 60.2998 31.647 45.0398 25.2C41.0498 23.512 36.7598 22.646 32.4278 22.656ZM32.4278 57.5409C31.0168 57.5409 29.8718 56.3969 29.8718 54.9849C29.8718 53.5739 31.0168 52.43 32.4278 52.43C33.8398 52.43 34.9848 53.5739 34.9848 54.9849C34.9848 56.3969 33.8398 57.5409 32.4278 57.5409Z" fill="#0B0808"/>
<path d="M84.3599 51.708C84.3599 36.809 78.9598 23.859 69.6998 14.772C60.4298 5.684 47.3999 0.458008 32.4739 0.458008C30.8339 0.458008 29.5049 1.78699 29.5049 3.42599C29.5049 5.06499 30.8339 6.39401 32.4739 6.39401C46.0399 6.39401 57.4499 11.081 65.5399 19C73.6199 26.919 78.4099 38.173 78.4199 51.708C78.4199 53.347 79.7499 54.676 81.3899 54.676C83.0299 54.676 84.3599 53.347 84.3599 51.708Z" fill="black"/>
<path d="M82.8198 25.315V22.347H78.4199V76.977H82.8198C97.6898 76.673 109.59 64.533 109.59 49.662C109.59 34.791 97.6898 22.651 82.8198 22.347V28.283C90.5798 28.104 97.8299 32.139 101.76 38.827C105.69 45.516 105.69 53.809 101.76 60.497C97.8299 67.186 90.5798 71.221 82.8198 71.041H81.3899V74.009H84.3599V25.315H81.3899V28.283H82.8198V25.315Z" fill="black"/>
<path d="M69.3201 87.2H86.9202C94.2002 87.2 100.11 81.296 100.12 74.009V70.365C100.12 68.726 98.7901 67.397 97.1501 67.397C95.5101 67.397 94.1802 68.726 94.1802 70.365V74.044C94.1802 78.054 90.9302 81.303 86.9202 81.309H69.3201C67.6801 81.309 66.3501 82.638 66.3501 84.278C66.3501 85.917 67.6801 87.246 69.3201 87.246V87.2Z" fill="black"/>
<path d="M73.4601 78.719H70.4401C70.4501 79.395 70.1801 80.044 69.7001 80.519C69.2201 81.003 68.5702 81.276 67.8902 81.276C67.2002 81.276 66.5501 81.003 66.0701 80.519C65.0801 79.521 65.0801 77.906 66.0701 76.909C66.5501 76.424 67.2002 76.152 67.8902 76.152C68.5702 76.152 69.2201 76.424 69.7001 76.909C70.1801 77.387 70.4501 78.04 70.4401 78.719H76.3802C76.3802 74.875 73.8101 71.506 70.0901 70.508C66.3801 69.51 62.4602 71.131 60.5302 74.459C58.6102 77.788 59.1602 81.994 61.8802 84.713C65.2002 88.03 70.5802 88.03 73.8902 84.713C75.4802 83.122 76.3802 80.968 76.3802 78.719H73.4601Z" fill="black"/>
<path d="M105.96 64.497C113.99 64.274 120.39 57.698 120.39 49.662C120.39 41.626 113.99 35.05 105.96 34.827C104.32 34.827 102.99 36.156 102.99 37.795C102.99 39.434 104.32 40.763 105.96 40.763C109.21 40.646 112.27 42.317 113.94 45.118C115.6 47.919 115.6 51.405 113.94 54.206C112.27 57.008 109.21 58.678 105.96 58.561C104.32 58.561 102.99 59.89 102.99 61.529C102.99 63.168 104.32 64.497 105.96 64.497Z" fill="black"/>
</svg>
