<svg width="153" height="74" viewBox="0 0 153 74" fill="none" xmlns="http://www.w3.org/2000/svg">
<path d="M33.1872 15.298C18.7202 15.298 6.99316 27.022 6.99316 41.485C6.99316 55.947 18.7202 67.671 33.1872 67.671C47.6502 67.671 59.3802 55.947 59.3802 41.485C59.3802 27.022 47.6502 15.298 33.1872 15.298ZM33.1872 50.183C28.3822 50.183 24.4862 46.289 24.4862 41.485C24.4862 36.681 28.3822 32.786 33.1872 32.786C37.9922 32.786 41.8902 36.681 41.8902 41.485C41.8902 46.289 37.9922 50.183 33.1872 50.183Z" fill="#08A3B3"/>
<path d="M33.1871 15.298C47.6501 15.298 59.3801 27.022 59.3801 41.485C59.3801 55.947 47.6501 67.671 33.1871 67.671C18.7201 67.671 6.9931 55.947 6.9931 41.485C6.9931 27.022 18.7201 15.298 33.1871 15.298ZM33.1871 50.183C37.9921 50.183 41.8901 46.288 41.8901 41.485C41.8901 36.681 37.9921 32.786 33.1871 32.786C28.3821 32.786 24.4861 36.681 24.4861 41.485C24.4861 46.288 28.3821 50.183 33.1871 50.183ZM33.1871 9.15504C16.6231 9.18204 2.77014 21.745 1.13714 38.224C-0.496861 54.703 10.6201 69.74 26.8571 73.016C43.0901 76.292 59.1701 66.742 64.0601 50.92C68.9501 35.097 61.0501 18.146 45.8001 11.7C41.8101 10.011 37.5191 9.14604 33.1871 9.15504ZM33.1871 44.04C31.7751 44.04 30.6301 42.896 30.6301 41.485C30.6301 40.073 31.7751 38.929 33.1871 38.929C34.5991 38.929 35.7431 40.073 35.7431 41.485C35.7431 42.896 34.5991 44.04 33.1871 44.04Z" fill="#0B0808"/>
<path d="M125.8 65.012V62.044C118.37 62.22 111.43 58.359 107.67 51.955C103.9 45.552 103.9 37.612 107.67 31.208C111.43 24.805 118.37 20.944 125.8 21.12H133.03V62.044H125.8V67.98H138.96V15.195H125.8C111.22 15.195 99.3999 27.011 99.3999 41.588C99.3999 56.164 111.22 67.98 125.8 67.98V65.012Z" fill="black"/>
<path d="M138.41 36.878H149.05C150.69 36.878 152.02 35.549 152.02 33.909C152.02 32.27 150.69 30.941 149.05 30.941H138.41C136.77 30.941 135.44 32.27 135.44 33.909C135.44 35.549 136.77 36.878 138.41 36.878Z" fill="black"/>
<path d="M138.41 52.016H149.05C150.69 52.016 152.02 50.688 152.02 49.048C152.02 47.409 150.69 46.08 149.05 46.08H138.41C136.77 46.08 135.44 47.409 135.44 49.048C135.44 50.688 136.77 52.016 138.41 52.016Z" fill="black"/>
<path d="M54.5398 21.922L68.0599 8.823C69.4199 7.423 71.2898 6.63397 73.2398 6.63397C75.1698 6.65497 77.0199 7.39897 78.4299 8.71997C79.1299 9.36597 79.6998 10.145 80.0998 11.012C80.5198 11.977 80.7298 13.019 80.7298 14.072V33.05C80.6998 35.052 81.0898 37.038 81.8698 38.883C83.0198 41.447 84.8998 43.616 87.2698 45.117C89.5898 46.6 92.2898 47.395 95.0398 47.41C98.4098 47.393 101.67 46.174 104.22 43.971C105.48 42.911 105.65 41.026 104.59 39.76C103.53 38.494 101.64 38.327 100.38 39.387C98.8898 40.698 96.9698 41.419 94.9898 41.416C92.8098 41.418 90.7198 40.6 89.1198 39.124C88.3298 38.383 87.6898 37.49 87.2498 36.499C86.7698 35.416 86.5298 34.244 86.5398 33.061V14.072C86.5498 12.189 86.1598 10.326 85.3898 8.60498C84.3198 6.20898 82.5598 4.18498 80.3398 2.79498C78.2098 1.45198 75.7498 0.725998 73.2298 0.697998C69.7198 0.713998 66.3598 2.12903 63.8998 4.62903L65.9998 6.72601L63.8998 4.59399L50.4098 17.659C49.2298 18.801 49.1998 20.682 50.3398 21.859C51.4798 23.036 53.3698 23.064 54.5398 21.922Z" fill="black"/>
</svg>
