<svg width="152" height="66" viewBox="0 0 152 66" fill="none" xmlns="http://www.w3.org/2000/svg">
<path d="M32.9582 6.84399C18.4912 6.84399 6.76318 18.568 6.76318 33.03C6.76318 47.493 18.4912 59.217 32.9582 59.217C47.4202 59.217 59.1502 47.493 59.1502 33.03C59.1502 18.568 47.4202 6.84399 32.9582 6.84399ZM32.9582 41.717C28.1492 41.724 24.2472 37.83 24.2452 33.023C24.2432 28.216 28.1422 24.319 32.9502 24.321C37.7582 24.323 41.6502 28.224 41.6502 33.03C41.6502 37.828 37.7572 41.717 32.9582 41.717Z" fill="#FF25F0"/>
<path d="M32.9581 6.84393C47.4201 6.84393 59.1501 18.5679 59.1501 33.0299C59.1501 47.4929 47.4201 59.2169 32.9581 59.2169C18.4911 59.2169 6.76311 47.4929 6.76311 33.0299C6.76311 18.5679 18.4911 6.84393 32.9581 6.84393ZM32.9581 41.7169C37.7641 41.7169 41.6601 37.8209 41.6601 33.0149C41.6601 28.2099 37.7571 24.3159 32.9501 24.3209C28.1431 24.3249 24.2501 28.2249 24.2571 33.0299C24.2571 35.3359 25.1741 37.5479 26.8061 39.1769C28.4381 40.8059 30.6511 41.7199 32.9581 41.7169ZM32.9581 0.700939C17.5791 0.710939 4.33414 11.5429 1.27514 26.6089C-1.78386 41.6759 6.19014 56.8129 20.3481 62.8159C34.6041 68.8599 51.1501 63.9519 59.8001 51.1119C68.4501 38.2709 66.7801 21.1019 55.8201 10.1669C49.7601 4.09994 41.5301 0.693939 32.9581 0.700939ZM32.9581 35.5859C31.5461 35.5859 30.4011 34.4419 30.4011 33.0299C30.4011 31.6189 31.5461 30.4749 32.9581 30.4749C34.3701 30.4749 35.5141 31.6189 35.5141 33.0299C35.5081 34.4389 34.3671 35.5799 32.9581 35.5859Z" fill="#0B0808"/>
<path d="M76.3899 33.122H79.3599C79.3899 20.614 88.2098 9.84805 100.47 7.35405C112.73 4.85905 125.06 11.323 129.97 22.826C134.89 34.328 131.04 47.7011 120.76 54.8351C110.49 61.9681 96.6099 60.898 87.5499 52.272C82.2999 47.298 79.3399 40.3831 79.3599 33.1561H73.4199C73.4599 48.6761 84.5199 61.984 99.7699 64.86C115.03 67.735 130.17 59.368 135.86 44.925C141.54 30.482 136.16 14.04 123.03 5.75404C109.9 -2.53196 92.7399 -0.322954 82.1399 11.015C76.5399 16.998 73.4199 24.884 73.4199 33.076L76.3899 33.122Z" fill="black"/>
<path d="M79.1799 24.149C78.6499 22.982 77.9699 21.885 77.1699 20.883C76.1099 19.58 74.7498 18.553 73.2098 17.892C71.8298 17.323 70.3399 17.038 68.8499 17.055C67.8999 17.051 66.9499 17.1591 66.0199 17.3761C64.4699 17.7531 63.0299 18.5 61.8299 19.553C60.4799 20.799 59.3799 22.3031 58.6099 23.9771L63.9698 26.555C64.2898 25.857 64.6999 25.202 65.1799 24.607C65.6199 24.052 66.1798 23.6141 66.8298 23.3351C67.4798 23.0881 68.1599 22.971 68.8499 22.991C69.3299 22.987 69.8099 23.041 70.2799 23.152C70.9199 23.309 71.5099 23.624 71.9899 24.069C72.7599 24.829 73.3799 25.7321 73.8099 26.7271L79.1799 24.206V24.149Z" fill="black"/>
<path d="M135.13 28.206H148.89C150.53 28.206 151.86 26.8771 151.86 25.2381C151.86 23.5981 150.53 22.269 148.89 22.269H135.13C133.49 22.269 132.16 23.5981 132.16 25.2381C132.16 26.8771 133.49 28.206 135.13 28.206Z" fill="black"/>
</svg>
