<svg width="115" height="92" viewBox="0 0 115 92" fill="none" xmlns="http://www.w3.org/2000/svg">
<path d="M34.6198 33.289C20.8768 31.504 8.28679 41.201 6.50179 54.947C4.71679 68.693 14.4138 81.284 28.1598 83.068C41.9098 84.853 54.4998 75.157 56.2798 61.41C58.0598 47.666 48.3698 35.079 34.6198 33.289ZM30.3178 66.446C25.7498 65.859 22.5228 61.679 23.1118 57.111C23.7008 52.543 27.8828 49.318 32.4508 49.909C37.0198 50.5 40.2398 54.683 39.6498 59.251C39.0598 63.812 34.8798 67.032 30.3178 66.446Z" fill="#0794FF"/>
<path d="M34.6198 33.289C48.3698 35.079 58.0598 47.672 56.2698 61.416C54.4798 75.16 41.8898 84.853 28.1458 83.066C14.4008 81.28 4.70682 68.69 6.49082 54.945C8.27582 41.195 20.8738 31.497 34.6198 33.289ZM30.3178 66.446C34.8798 67.039 39.0698 63.818 39.6598 59.252C40.2498 54.686 37.0298 50.504 32.4648 49.911C27.8988 49.318 23.7168 52.539 23.1238 57.105C22.8368 59.298 23.4328 61.516 24.7828 63.268C26.1328 65.021 28.1238 66.164 30.3178 66.446ZM35.3798 27.461C19.9948 25.478 5.51479 35.181 1.49979 50.164C-2.51521 65.148 5.17179 80.791 19.4868 86.767C33.8018 92.742 50.3298 87.207 58.1598 73.816C63.4098 64.847 63.8098 53.844 59.2298 44.517C54.6398 35.19 45.6898 28.785 35.3798 27.461ZM31.0748 60.619C30.0868 60.495 29.2698 59.787 29.0078 58.826C28.7448 57.865 29.0868 56.841 29.8748 56.231C30.6628 55.622 31.7408 55.547 32.6048 56.043C33.4688 56.538 33.9488 57.506 33.8208 58.494C33.6408 59.834 32.4168 60.781 31.0748 60.619Z" fill="#0B0808"/>
<path d="M72.47 75.219C79.15 59.113 75.8001 40.587 63.9001 27.841C62.8201 26.692 61.0201 26.632 59.8701 27.706C58.7201 28.78 58.6601 30.583 59.7401 31.731C70.1 42.852 73.02 58.9941 67.22 73.0431C66.62 74.4941 67.3101 76.158 68.7601 76.76C70.2101 77.361 71.88 76.672 72.48 75.221L72.47 75.219Z" fill="black"/>
<path d="M88.0503 81.685C90.1003 76.682 91.4803 71.4319 92.1603 66.0689C94.5503 47.8659 88.6403 29.551 76.0503 16.183C75.3703 15.38 74.3103 15.018 73.2803 15.241C72.2503 15.464 71.4302 16.237 71.1402 17.249C70.8602 18.262 71.1603 19.349 71.9203 20.077C86.9003 36.032 91.1503 59.279 82.8003 79.507C82.3803 80.45 82.5102 81.543 83.1402 82.363C83.7602 83.184 84.7703 83.605 85.7903 83.464C86.8103 83.324 87.6803 82.643 88.0503 81.685Z" fill="black"/>
<path d="M108.16 90.033C110.96 83.26 112.85 76.147 113.79 68.878C117.01 44.282 109.04 19.539 92.08 1.43899C91.01 0.289988 89.2001 0.229979 88.0501 1.30398C86.9101 2.37898 86.8501 4.18098 87.9201 5.32998C108.66 27.523 114.52 59.788 102.9 87.855C102.34 89.298 103.03 90.928 104.46 91.521C105.89 92.115 107.54 91.453 108.16 90.033Z" fill="black"/>
</svg>
