<svg width="71" height="39" viewBox="0 0 71 39" fill="none" xmlns="http://www.w3.org/2000/svg">
<g clip-path="url(#clip0_526_433)">
<path d="M42.5636 11.5926C43.737 11.5926 44.8841 11.2527 45.8597 10.6158C46.8353 9.97886 47.5957 9.07361 48.0448 8.01447C48.4938 6.95533 48.6113 5.78989 48.3824 4.66551C48.1535 3.54114 47.5884 2.50833 46.7587 1.6977C45.929 0.887074 44.8719 0.335029 43.7211 0.111377C42.5702 -0.112275 41.3773 0.00251145 40.2933 0.441221C39.2092 0.87993 38.2826 1.62286 37.6307 2.57606C36.9788 3.52925 36.6309 4.64991 36.6309 5.79631C36.6326 7.33307 37.2582 8.8064 38.3704 9.89306C39.4827 10.9797 40.9907 11.5909 42.5636 11.5926V11.5926ZM42.5636 2.39848C43.2515 2.39848 43.9239 2.59776 44.4958 2.97112C45.0677 3.34447 45.5135 3.87514 45.7767 4.49602C46.04 5.11689 46.1088 5.80008 45.9746 6.4592C45.8404 7.11832 45.5092 7.72375 45.0228 8.19895C44.5364 8.67415 43.9167 8.99776 43.2421 9.12886C42.5675 9.25997 41.8682 9.19268 41.2327 8.93551C40.5972 8.67833 40.0541 8.24282 39.6719 7.68405C39.2898 7.12528 39.0858 6.46834 39.0858 5.79631C39.0858 4.89515 39.4522 4.0309 40.1044 3.39368C40.7566 2.75646 41.6412 2.39848 42.5636 2.39848V2.39848Z" fill="white"/>
<path d="M69.977 21.328C69.1473 19.4089 67.8475 17.7185 66.1921 16.4054C64.5366 15.0923 62.5762 14.1969 60.4834 13.7979C58.3905 13.3988 56.2294 13.5085 54.1901 14.1171C52.1508 14.7257 50.2959 15.8147 48.7885 17.2882C48.6134 17.4593 48.4448 17.6352 48.2803 17.8143C47.9327 16.5935 47.1858 15.5173 46.1536 14.7501C45.1214 13.9828 43.8606 13.5666 42.5636 13.565H42.5063C41.544 13.5645 40.596 13.7927 39.7441 14.2299C38.8921 14.6671 38.1618 15.3002 37.6161 16.0746L32.788 22.931L27.96 16.0746C27.4144 15.3003 26.6842 14.6672 25.8324 14.23C24.9806 13.7928 24.0328 13.5646 23.0706 13.565H23.0125C22.1023 13.5651 21.2044 13.77 20.3884 14.1639C19.5724 14.5578 18.8603 15.1301 18.3072 15.8363C17.7542 15.13 17.042 14.5578 16.226 14.1638C15.41 13.7699 14.5121 13.565 13.6019 13.565H13.5675C12.6954 13.5638 11.8339 13.7522 11.0455 14.1166L3.41146 17.62C2.0506 18.2415 0.981697 19.3443 0.420431 20.7056C-0.140835 22.067 -0.152682 23.5857 0.38728 24.9553C0.927241 26.3249 1.97882 27.4434 3.32982 28.0852C4.68082 28.7269 6.23069 28.8441 7.66668 28.4131V33.1933C7.66601 34.4046 8.05399 35.5856 8.77605 36.5703C9.49812 37.555 10.5179 38.2937 11.6921 38.6827C12.8662 39.0717 14.1357 39.0913 15.3218 38.7388C16.508 38.3862 17.5512 37.6793 18.3047 36.7174C18.8723 37.4425 19.6074 38.0261 20.4499 38.4207C21.2924 38.8152 22.2184 39.0096 23.1524 38.9878C24.0864 38.9661 25.0019 38.7289 25.8242 38.2955C26.6465 37.8622 27.3523 37.245 27.8839 36.4944C28.4264 37.262 29.1504 37.8905 29.9944 38.3267C30.8384 38.7628 31.7776 38.9938 32.7324 39H32.8363C33.7919 38.9945 34.732 38.7638 35.5768 38.3274C36.4216 37.8911 37.1461 37.262 37.6889 36.4936C38.3306 37.3995 39.2234 38.1079 40.2626 38.5356C41.3018 38.9634 42.4443 39.0927 43.5561 38.9085C44.6679 38.7243 45.7028 38.2342 46.5396 37.4956C47.3764 36.757 47.9802 35.8007 48.2803 34.7387C48.444 34.9186 48.6134 35.0937 48.7885 35.2656C50.9222 37.353 53.7326 38.6504 56.738 38.9354C59.7435 39.2204 62.7568 38.4753 65.2616 36.8277C67.7663 35.1801 69.6066 32.7326 70.4669 29.9048C71.3272 27.0769 71.154 24.0448 69.977 21.328V21.328ZM17.0732 33.1925C17.0732 34.0937 16.7068 34.9579 16.0545 35.5951C15.4023 36.2323 14.5177 36.5903 13.5953 36.5903V36.5903C12.673 36.5903 11.7884 36.2323 11.1362 35.5951C10.4839 34.9579 10.1175 34.0937 10.1175 33.1925V25.7028C10.1179 25.5954 10.0904 25.4896 10.0376 25.3954C9.98482 25.3011 9.90843 25.2215 9.81558 25.1639C9.72273 25.1064 9.61646 25.0727 9.5067 25.0662C9.39694 25.0596 9.28726 25.0803 9.18792 25.1264L7.41546 25.9403C6.58114 26.3211 5.62629 26.3631 4.76033 26.0571C3.89437 25.751 3.18799 25.1219 2.79613 24.3077C2.40427 23.4936 2.35891 22.5608 2.67001 21.714C2.98111 20.8672 3.62326 20.1755 4.45562 19.7906L12.0831 16.2872C12.5453 16.0741 13.0499 15.9636 13.561 15.9634H13.5953C14.052 15.9633 14.5042 16.0511 14.9262 16.2218C15.3481 16.3925 15.7315 16.6427 16.0545 16.9581C16.3774 17.2736 16.6336 17.6481 16.8084 18.0603C16.9832 18.4725 17.0732 18.9143 17.0732 19.3605V19.3605V33.1917V33.1925ZM46.0414 21.2377C46.0283 21.2681 46.0144 21.2977 46.0013 21.328C45.3257 22.8943 44.9776 24.5768 44.9776 26.2765C44.9776 27.9762 45.3257 29.6587 46.0013 31.2249C46.0144 31.2553 46.0283 31.2857 46.0414 31.3153V33.1925C46.0414 34.0937 45.675 34.9579 45.0228 35.5951C44.3706 36.2323 43.486 36.5903 42.5636 36.5903V36.5903C41.6412 36.5903 40.7566 36.2323 40.1044 35.5951C39.4522 34.9579 39.0858 34.0937 39.0858 33.1925V32.2803C39.0865 32.1957 39.07 32.1119 39.0371 32.0337C39.0042 31.9555 38.9557 31.8845 38.8943 31.8249C38.8329 31.7653 38.76 31.7183 38.6797 31.6867C38.5995 31.655 38.5135 31.6394 38.427 31.6407C38.3211 31.6403 38.2168 31.6659 38.1236 31.7151C38.0304 31.7642 37.9513 31.8354 37.8935 31.9221L35.6693 35.1305C35.3516 35.5819 34.9267 35.9515 34.4309 36.2075C33.9351 36.4636 33.3832 36.5985 32.8224 36.6007H32.7479C32.187 36.5985 31.635 36.4637 31.1391 36.2076C30.6431 35.9516 30.2181 35.582 29.9002 35.1305L27.6769 31.9221C27.619 31.8354 27.5399 31.7643 27.4467 31.7152C27.3535 31.666 27.2492 31.6404 27.1433 31.6407C27.0568 31.6394 26.9708 31.655 26.8905 31.6867C26.8102 31.7183 26.7372 31.7653 26.6758 31.8249C26.6143 31.8844 26.5657 31.9554 26.5327 32.0336C26.4997 32.1118 26.4831 32.1957 26.4838 32.2803V33.1925C26.4838 34.0937 26.1173 34.9579 25.4651 35.5951C24.8129 36.2323 23.9283 36.5903 23.0059 36.5903V36.5903C22.0836 36.5903 21.199 36.2323 20.5467 35.5951C19.8945 34.9579 19.5281 34.0937 19.5281 33.1925V33.1925V19.3613C19.5281 18.9151 19.6181 18.4733 19.7929 18.0611C19.9676 17.6489 20.2238 17.2744 20.5468 16.9589C20.8697 16.6435 21.2531 16.3933 21.6751 16.2226C22.097 16.0519 22.5493 15.9641 23.0059 15.9642H23.064C23.6278 15.964 24.1831 16.0978 24.6821 16.3541C25.1811 16.6104 25.6087 16.9815 25.9281 17.4353L32.2447 26.3992C32.305 26.4838 32.3853 26.5529 32.4789 26.6006C32.5724 26.6484 32.6764 26.6733 32.7819 26.6733C32.8874 26.6733 32.9914 26.6484 33.0849 26.6006C33.1785 26.5529 33.2588 26.4838 33.3191 26.3992L39.6348 17.4353C39.9547 16.981 40.383 16.6096 40.8828 16.3533C41.3825 16.097 41.9386 15.9635 42.503 15.9642H42.5603C43.0171 15.9641 43.4693 16.052 43.8913 16.2227C44.3133 16.3934 44.6968 16.6437 45.0197 16.9592C45.3427 17.2748 45.5989 17.6494 45.7736 18.0617C45.9484 18.474 46.0382 18.9158 46.0381 19.3621L46.0414 21.2377ZM57.9888 36.5879C55.9009 36.5879 53.86 35.9831 52.124 34.8498C50.3881 33.7165 49.0351 32.1058 48.2361 30.2213C47.4371 28.3367 47.2281 26.263 47.6354 24.2624C48.0427 22.2618 49.0481 20.4241 50.5244 18.9818C52.0007 17.5394 53.8816 16.5572 55.9293 16.1592C57.9771 15.7613 60.0996 15.9655 62.0285 16.7461C63.9574 17.5267 65.606 18.8486 66.7659 20.5446C67.9259 22.2407 68.545 24.2347 68.545 26.2745C68.5453 27.6291 68.2725 28.9704 67.7421 30.222C67.2118 31.4736 66.4343 32.6108 65.454 33.5687C64.4737 34.5267 63.3099 35.2866 62.029 35.805C60.7481 36.3235 59.3752 36.5903 57.9888 36.5903V36.5879Z" fill="white"/>
<path d="M57.866 22.8655C57.1782 22.8655 56.5058 23.0648 55.9338 23.4381C55.3619 23.8115 54.9161 24.3421 54.6529 24.963C54.3897 25.5839 54.3208 26.2671 54.455 26.9262C54.5892 27.5853 54.9204 28.1908 55.4068 28.666C55.8932 29.1412 56.5129 29.4648 57.1875 29.5959C57.8621 29.727 58.5614 29.6597 59.1969 29.4025C59.8324 29.1453 60.3756 28.7098 60.7577 28.1511C61.1398 27.5923 61.3438 26.9354 61.3438 26.2633C61.3438 25.3622 60.9774 24.4979 60.3252 23.8607C59.673 23.2235 58.7884 22.8655 57.866 22.8655V22.8655ZM57.866 27.2627C57.6637 27.2627 57.4659 27.2041 57.2977 27.0943C57.1295 26.9845 56.9984 26.8284 56.921 26.6458C56.8436 26.4632 56.8233 26.2622 56.8628 26.0684C56.9022 25.8745 56.9997 25.6964 57.1427 25.5567C57.2858 25.4169 57.468 25.3217 57.6664 25.2832C57.8649 25.2446 58.0705 25.2644 58.2574 25.34C58.4444 25.4157 58.6041 25.5438 58.7165 25.7081C58.8289 25.8724 58.8889 26.0657 58.8889 26.2633C58.8885 26.5282 58.7806 26.7822 58.5888 26.9695C58.3971 27.1568 58.1372 27.2623 57.866 27.2627V27.2627Z" fill="white"/>
</g>
<defs>
<clipPath id="clip0_526_433">
<rect width="71" height="39" fill="white"/>
</clipPath>
</defs>
</svg>
