<svg width="32" height="33" viewBox="0 0 32 33" fill="none" xmlns="http://www.w3.org/2000/svg">
<g clip-path="url(#clip0_843_17)">
<rect width="31.6674" height="33" transform="translate(0.123535)" fill="black"/>
<path d="M1.3928 32.064H30.5218C30.9108 32.064 31.2736 31.8985 31.517 31.6101C31.7285 31.36 31.8221 31.0427 31.782 30.7168C31.0989 25.1713 27.8267 20.5502 23.347 18.0864C21.4536 20.0595 18.8397 21.2815 15.9573 21.2815C13.0749 21.2815 10.4609 20.0595 8.56764 18.0864C4.08789 20.5495 0.815042 25.1713 0.132598 30.7168C0.092432 31.0427 0.186663 31.3607 0.397568 31.6101C0.640988 31.8985 1.00376 32.064 1.3928 32.064Z" fill="white"/>
<path d="M9.39349 16.8874C9.56347 17.0731 9.74096 17.2501 9.92471 17.4214C11.5296 18.9175 13.64 19.8353 15.9572 19.8353C18.2743 19.8353 20.3848 18.9167 21.9896 17.4214C22.1734 17.2501 22.351 17.073 22.5208 16.8874C22.6901 16.7016 22.8552 16.5116 23.0105 16.3122C24.2679 14.6896 25.0252 12.6292 25.0252 10.3858C25.0252 5.17489 20.9568 0.936096 15.957 0.936096C10.9573 0.936096 6.88916 5.17555 6.88916 10.3857C6.88916 12.6291 7.64645 14.6896 8.90385 16.312C9.05852 16.5116 9.22352 16.701 9.39349 16.8874Z" fill="white"/>
</g>
<defs>
<clipPath id="clip0_843_17">
<rect width="31.6674" height="33" fill="white" transform="translate(0.123535)"/>
</clipPath>
</defs>
</svg>
