<svg width="75" height="42" viewBox="0 0 75 42" fill="none" xmlns="http://www.w3.org/2000/svg">
<path d="M48.0595 8.81317C49.5094 7.38678 49.5094 5.07415 48.0595 3.64776C46.6096 2.22137 44.2589 2.22138 42.809 3.64776C41.3591 5.07415 41.3591 7.38678 42.809 8.81317C44.2589 10.2396 46.6096 10.2396 48.0595 8.81317Z" fill="white"/>
<path d="M14.5122 17.2397C14.5122 17.2397 14.5032 17.2397 14.499 17.2397C14.4908 17.2397 14.4833 17.2397 14.4751 17.2397C13.9461 17.2397 13.4088 17.3511 12.8981 17.5878L4.75599 21.3541C2.90045 22.2128 2.10368 24.3879 2.97567 26.2133C3.60795 27.5363 4.94361 28.312 6.33795 28.312C6.86693 28.312 7.40416 28.2006 7.91495 27.964L9.80686 27.089C9.90439 27.0443 10.0052 27.0232 10.1028 27.0232C10.4689 27.0232 10.7987 27.3127 10.7987 27.7095V35.7593C10.7987 37.7767 12.4608 39.4119 14.5114 39.4119C16.562 39.4119 18.2242 37.7767 18.2242 35.7593V20.8915C18.225 18.8749 16.5628 17.2397 14.5122 17.2397Z" fill="white"/>
<path d="M45.4353 17.2398C45.4287 17.2398 45.4229 17.2406 45.4163 17.2406C45.4022 17.2406 45.3873 17.2406 45.3733 17.2406C44.193 17.2406 43.0317 17.7927 42.3118 18.8222L35.5699 28.456C35.4319 28.6536 35.2137 28.7528 34.9963 28.7528C34.7789 28.7528 34.5607 28.6536 34.4227 28.456L27.6808 18.8213C26.9609 17.7927 25.8004 17.2398 24.6193 17.2398C24.6053 17.2398 24.5912 17.2398 24.5763 17.2398C24.5697 17.2398 24.5639 17.239 24.5573 17.239C22.5067 17.239 20.8446 18.8742 20.8446 20.8915V35.7586C20.8446 37.7759 22.5067 39.4111 24.5573 39.4111C26.6079 39.4111 28.2701 37.7759 28.2701 35.7586V34.7788C28.2701 34.356 28.6189 34.0925 28.9743 34.0925C29.1859 34.0925 29.3999 34.186 29.5437 34.395L31.9175 37.8434C32.6333 38.8663 33.7838 39.4168 34.9566 39.4241C34.9632 39.4241 34.9798 39.4241 34.9963 39.4241C35.0128 39.4241 35.0294 39.4241 35.036 39.4241C36.2088 39.4176 37.3593 38.8663 38.0751 37.8434L40.4489 34.395C40.5927 34.186 40.8068 34.0925 41.0183 34.0925C41.3737 34.0925 41.7225 34.356 41.7225 34.7788V35.7586C41.7225 37.7759 43.3847 39.4111 45.4353 39.4111C47.4859 39.4111 49.148 37.7759 49.148 35.7586V35.3805C48.7876 34.8016 48.4694 34.195 48.1983 33.564C47.4735 31.8776 47.1057 30.0879 47.1057 28.2446C47.1057 26.4012 47.4735 24.6116 48.1983 22.9252C48.4703 22.2934 48.7876 21.6876 49.148 21.1086V20.8932C49.1472 18.875 47.485 17.2398 45.4353 17.2398Z" fill="white"/>
<path d="M60.9693 17.1511C54.7464 17.1511 49.7013 22.1144 49.7013 28.2364C49.7013 34.3583 54.7464 39.3216 60.9693 39.3216C67.193 39.3216 72.2372 34.3583 72.2372 28.2364C72.2372 22.1144 67.1922 17.1511 60.9693 17.1511ZM60.9693 29.3105C60.3676 29.3105 59.8774 28.8283 59.8774 28.2364C59.8774 27.6444 60.3676 27.1622 60.9693 27.1622C61.571 27.1622 62.0611 27.6444 62.0611 28.2364C62.0611 28.8283 61.571 29.3105 60.9693 29.3105Z" fill="white"/>
<path d="M45.4355 12.4602C48.9275 12.4602 51.7683 9.66554 51.7683 6.23011C51.7683 2.79469 48.9275 0 45.4355 0C41.9434 0 39.1027 2.79469 39.1027 6.23011C39.1027 9.66554 41.9434 12.4602 45.4355 12.4602ZM45.4355 2.57758C47.4861 2.57758 49.1482 4.21277 49.1482 6.23011C49.1482 8.24746 47.4861 9.88264 45.4355 9.88264C43.3849 9.88264 41.7227 8.24746 41.7227 6.23011C41.7227 4.21277 43.3849 2.57758 45.4355 2.57758Z" fill="black"/>
<path d="M60.9455 24.5774C58.8949 24.5774 57.2328 26.2126 57.2328 28.2299C57.2328 30.2473 58.8949 31.8824 60.9455 31.8824C62.9961 31.8824 64.6583 30.2473 64.6583 28.2299C64.6574 26.2126 62.9953 24.5774 60.9455 24.5774ZM60.9455 29.3032C60.3438 29.3032 59.8537 28.8211 59.8537 28.2291C59.8537 27.6372 60.3438 27.155 60.9455 27.155C61.5472 27.155 62.0374 27.6372 62.0374 28.2291C62.0374 28.8211 61.5472 29.3032 60.9455 29.3032Z" fill="black"/>
<path d="M73.79 22.9243C73.09 21.2972 72.089 19.8361 70.8145 18.5822C69.54 17.3284 68.0548 16.3437 66.4009 15.655C64.6867 14.9419 62.8675 14.5801 60.9938 14.5801C59.1201 14.5801 57.3009 14.9419 55.5867 15.655C53.9758 16.3258 52.5253 17.278 51.2731 18.4855C50.3143 16.2413 48.0596 14.6614 45.4345 14.6614C45.4221 14.6614 45.4089 14.6614 45.3965 14.6614C45.3891 14.6614 45.3808 14.6614 45.3734 14.6614C43.2872 14.6614 41.3358 15.6697 40.1539 17.3585L34.9964 24.7286L29.8389 17.3585C28.657 15.6697 26.7056 14.6614 24.6194 14.6606C24.612 14.6606 24.6037 14.6606 24.5963 14.6606C24.5839 14.6606 24.5707 14.6606 24.5583 14.6606C22.5143 14.6606 20.6943 15.6192 19.5355 17.1024C18.3767 15.6192 16.5567 14.6606 14.5127 14.6606C14.5053 14.6606 14.4954 14.6606 14.4838 14.6606H14.4755C13.5391 14.6606 12.634 14.8598 11.7835 15.2533L3.64148 19.0197C2.11076 19.7279 0.951978 20.9801 0.378372 22.5454C-0.195234 24.1106 -0.11423 25.8027 0.604843 27.3086C1.12638 28.399 1.95042 29.3113 2.9877 29.9464C3.99523 30.5627 5.15402 30.8888 6.33842 30.8888C6.96823 30.8888 7.58481 30.7985 8.17908 30.6197V35.7577C8.17908 39.1932 11.0198 41.9879 14.5119 41.9879C16.5559 41.9879 18.3759 41.0292 19.5347 39.5461C20.6934 41.0292 22.5134 41.9879 24.5574 41.9879C26.7097 41.9879 28.6157 40.9259 29.7604 39.3062C30.934 40.9812 32.8698 41.9879 34.941 42.0001C34.9567 42.0001 34.9766 42.0001 34.9964 42.0001C35.0162 42.0001 35.0361 42.0001 35.0518 42.0001C37.1222 41.9879 39.0588 40.9812 40.2324 39.3062C41.3771 40.9259 43.2823 41.9879 45.4354 41.9879C48.105 41.9879 50.3937 40.3535 51.3235 38.0483C52.5641 39.2338 53.9973 40.1697 55.5875 40.8316C57.3017 41.5447 59.1209 41.9065 60.9946 41.9065C62.8684 41.9065 64.6875 41.5447 66.4017 40.8316C68.0556 40.1429 69.5409 39.1582 70.8154 37.9044C72.0899 36.6505 73.0908 35.1894 73.7908 33.5623C74.5157 31.8759 74.8835 30.0862 74.8835 28.2429C74.8827 26.4004 74.5149 24.6107 73.79 22.9243ZM18.2255 35.7586C18.2255 37.7759 16.5633 39.4111 14.5127 39.4111C12.4621 39.4111 10.8 37.7759 10.8 35.7586V27.7087C10.8 27.3127 10.4702 27.0224 10.1041 27.0224C10.0057 27.0224 9.90569 27.0436 9.80816 27.0883L7.91625 27.9632C7.40546 28.199 6.86822 28.3112 6.33925 28.3112C4.94573 28.3112 3.60924 27.5355 2.97696 26.2125C2.10415 24.3871 2.90175 22.212 4.75729 21.3534L12.8993 17.587C13.4101 17.3512 13.9474 17.239 14.4763 17.239C14.4846 17.239 14.4921 17.239 14.5003 17.239C14.5045 17.239 14.5135 17.239 14.5135 17.239C16.5641 17.239 18.2263 18.8742 18.2263 20.8915V35.7586H18.2255ZM49.1473 21.1078C48.7869 21.6867 48.4687 22.2933 48.1976 22.9243C47.4727 24.6107 47.1049 26.4004 47.1049 28.2437C47.1049 30.0871 47.4727 31.8767 48.1976 33.5631C48.4695 34.1949 48.7869 34.8007 49.1473 35.3796V35.7577C49.1473 37.7751 47.4851 39.4103 45.4345 39.4103C43.3839 39.4103 41.7218 37.7751 41.7218 35.7577V34.7779C41.7218 34.3551 41.373 34.0917 41.0176 34.0917C40.806 34.0917 40.5919 34.1852 40.4481 34.3941L38.0744 37.8426C37.3586 38.8655 36.2081 39.416 35.0352 39.4233C35.0286 39.4233 35.0121 39.4233 34.9956 39.4233C34.979 39.4233 34.9625 39.4233 34.9559 39.4233C33.7831 39.4168 32.6325 38.8655 31.9168 37.8426L29.543 34.3941C29.3992 34.1852 29.1851 34.0917 28.9735 34.0917C28.6181 34.0917 28.2693 34.3551 28.2693 34.7779V35.7577C28.2693 37.7751 26.6072 39.4103 24.5566 39.4103C22.506 39.4103 20.8439 37.7751 20.8439 35.7577V20.8915C20.8439 18.8742 22.506 17.239 24.5566 17.239C24.5632 17.239 24.569 17.2398 24.5756 17.2398C24.5897 17.2398 24.6037 17.2398 24.6186 17.2398C25.7989 17.2398 26.9601 17.7919 27.68 18.8213L34.422 28.4559C34.56 28.6535 34.7782 28.7527 34.9956 28.7527C35.2129 28.7527 35.4311 28.6535 35.5692 28.4559L42.3111 18.8213C43.031 17.7927 44.1914 17.2398 45.3725 17.2398C45.3866 17.2398 45.4015 17.2398 45.4155 17.2398C45.4221 17.2398 45.4279 17.239 45.4345 17.239C47.4851 17.239 49.1473 18.8742 49.1473 20.8915V21.1078ZM60.9938 39.329C54.7709 39.329 49.7258 34.3657 49.7258 28.2437C49.7258 22.1217 54.7709 17.1585 60.9938 17.1585C67.2175 17.1585 72.2618 22.1217 72.2618 28.2437C72.2618 34.3657 67.2175 39.329 60.9938 39.329Z" fill="black"/>
</svg>
